<svg width="36" height="13" viewBox="0 0 36 13" fill="none" xmlns="http://www.w3.org/2000/svg">
<path d="M4.624 12L0.56 0.799999H2.32L5.664 10.024L9.024 0.799999H10.784L6.72 12H4.624ZM11.6788 4H13.3428V12H11.6788V4ZM12.5268 2.84C12.2708 2.84 12.0574 2.75733 11.8868 2.592C11.7161 2.42667 11.6308 2.21867 11.6308 1.968C11.6308 1.72267 11.7161 1.51733 11.8868 1.352C12.0574 1.18133 12.2681 1.096 12.5188 1.096C12.7641 1.096 12.9721 1.18133 13.1428 1.352C13.3134 1.51733 13.3988 1.72267 13.3988 1.968C13.3988 2.21867 13.3134 2.42667 13.1428 2.592C12.9774 2.75733 12.7721 2.84 12.5268 2.84ZM18.6363 12.208C17.9003 12.208 17.2283 12.0187 16.6203 11.64C16.0176 11.2613 15.5349 10.7547 15.1723 10.12C14.8149 9.48 14.6363 8.77333 14.6363 8C14.6363 7.41333 14.7403 6.86667 14.9483 6.36C15.1563 5.848 15.4416 5.4 15.8043 5.016C16.1723 4.62667 16.5989 4.32267 17.0843 4.104C17.5696 3.88533 18.0869 3.776 18.6363 3.776C19.2496 3.776 19.8123 3.904 20.3243 4.16C20.8363 4.41067 21.2736 4.76 21.6363 5.208C21.9989 5.65067 22.2656 6.16267 22.4363 6.744C22.6069 7.32 22.6576 7.93333 22.5883 8.584H16.4203C16.4896 8.952 16.6229 9.28533 16.8203 9.584C17.0229 9.87733 17.2789 10.1093 17.5883 10.28C17.9029 10.4507 18.2523 10.5387 18.6363 10.544C19.0416 10.544 19.4096 10.4427 19.7403 10.24C20.0763 10.0373 20.3509 9.75733 20.5643 9.4L22.2523 9.792C21.9323 10.5013 21.4496 11.0827 20.8043 11.536C20.1589 11.984 19.4363 12.208 18.6363 12.208ZM16.3643 7.312H20.9083C20.8549 6.928 20.7189 6.58133 20.5003 6.272C20.2869 5.95733 20.0176 5.70933 19.6923 5.528C19.3723 5.34133 19.0203 5.248 18.6363 5.248C18.2576 5.248 17.9056 5.33867 17.5803 5.52C17.2603 5.70133 16.9936 5.94933 16.7803 6.264C16.5723 6.57333 16.4336 6.92267 16.3643 7.312ZM27.3941 12H25.7381L23.0581 4H24.6901L26.5781 9.616L28.4501 4H30.1301L32.0021 9.616L33.8821 4H35.5141L32.8421 12H31.1701L29.2821 6.344L27.3941 12Z" fill="white"/>
</svg>
