<svg width="60" height="136" viewBox="0 0 60 136" fill="none" xmlns="http://www.w3.org/2000/svg">
<path d="M37.1232 73.1209C34.4905 74.353 31.6518 75.2756 28.7075 75.6396C25.7726 76.0357 22.749 75.8914 19.9599 75.4821C17.1251 75.0746 14.3371 74.3529 11.6886 73.2785C9.04769 72.1903 6.55378 70.7355 4.44241 68.8107C3.39427 67.8345 2.42324 66.7664 1.68412 65.5034C0.937462 64.2542 0.333115 62.8593 0.163424 61.2911C-0.0137951 59.7367 0.299981 58.004 1.22928 56.5189C2.14482 55.0262 3.57926 53.9249 5.0375 53.2212C5.76481 52.8236 6.52376 52.6132 7.26713 52.3496C8.01724 52.188 8.76995 51.9564 9.49926 51.8818C10.2436 51.7796 10.9774 51.6806 11.701 51.6655L12.7839 51.6146L13.8429 51.64C16.6682 51.7383 19.3659 52.1512 21.9337 52.7523C24.5384 53.4005 27.1428 54.2451 29.389 55.5643C31.6473 56.8453 33.7211 58.3652 35.4033 60.1266L36.0533 60.7686L36.6349 61.4536C37.0217 61.9067 37.4191 62.3568 37.7876 62.8268C38.4533 63.7992 39.1949 64.7149 39.7404 65.7109C40.0975 66.2998 40.4196 66.8875 40.7447 67.4857C41.2467 67.1078 41.7349 66.7224 42.2031 66.3081C44.1003 64.6555 45.7494 62.7866 47.0882 60.7657C48.424 58.7342 49.355 56.5436 49.9781 54.3276C51.1524 49.8472 51.0382 45.1889 50.1723 40.9238C49.3078 36.6236 47.6972 32.6572 45.8175 29.0352C43.9379 25.4132 41.7528 22.1694 39.5636 19.2273C37.3743 16.2852 35.1444 13.6785 32.9565 11.4525C28.5745 6.9791 24.2332 4.14632 21.036 2.53899C17.8481 0.963599 15.8779 0.43038 15.9333 0.263972C15.9603 0.198292 16.459 0.283567 17.4126 0.501618C18.3586 0.733428 19.7293 1.15305 21.4477 1.85237C24.8417 3.26347 29.4718 5.97715 34.143 10.4122C36.4755 12.619 38.85 15.2065 41.1839 18.1295C43.5103 21.0661 45.8386 24.3258 47.8878 28.0138C49.9263 31.7049 51.7144 35.8043 52.7314 40.3488C53.7558 44.8796 54.0029 49.8341 52.8015 54.854C52.1466 57.3567 51.1381 59.8356 49.6837 62.133C48.2261 64.4197 46.4095 66.5456 44.311 68.4189C43.6065 69.0525 42.8514 69.6315 42.0794 70.1924C43.1658 72.6827 43.9644 75.1764 44.5508 77.6165C46.4139 85.4497 46.4494 92.4075 46.1173 98.3056C45.7213 104.222 44.8742 109.15 43.9428 113.236C42.0204 121.402 39.9355 126.206 38.5972 129.059C38.2902 129.669 38.0297 130.161 37.7917 130.612C38.2591 130.314 38.7341 130.001 39.2077 129.724C40.7408 128.802 42.2699 127.985 43.7463 127.265C46.6929 125.802 49.4805 124.744 51.8465 123.983C56.5983 122.489 59.6832 122.211 59.7709 122.59C59.8772 123.033 57.0315 124.05 52.6451 126.003C50.4604 126.988 47.8809 128.205 45.1389 129.735C43.7663 130.494 42.3455 131.326 40.9007 132.234C40.1783 132.688 39.4483 133.155 38.7278 133.655C38.3606 133.901 38.0466 134.131 37.4865 134.469C36.9979 134.773 35.9476 135.173 35.0615 135.027C34.604 134.965 34.178 134.812 33.8003 134.587C33.4364 134.37 33.1958 134.14 32.9689 133.918C32.5471 133.463 32.2655 133.014 32.0408 132.641C31.6081 131.912 31.1817 131.205 30.7584 130.508C29.93 129.098 29.1491 127.731 28.4295 126.416C26.9902 123.787 25.7778 121.379 24.8296 119.322C22.9332 115.208 22.0573 112.529 22.4644 112.341C22.8791 112.139 24.5054 114.46 26.9224 118.26C28.1181 120.175 29.546 122.45 31.1157 124.972C31.9005 126.233 32.7284 127.563 33.59 128.929C34.0209 129.612 34.4579 130.316 34.9056 131.017C34.9118 131.038 34.9287 131.056 34.9456 131.075C35.135 130.418 35.4325 129.499 35.909 128.204C36.8586 125.327 38.5997 120.611 40.2601 112.695C41.0674 108.738 41.7996 103.971 42.1346 98.28C42.395 92.6109 42.3309 85.9503 40.5791 78.6162C40.0909 76.5518 39.4213 74.4595 38.5721 72.3852C38.1028 72.638 37.6336 72.8907 37.1476 73.1253M36.2059 67.6921C35.7203 66.7825 35.0587 65.9822 34.4836 65.1219C34.155 64.7095 33.8113 64.3247 33.4721 63.9154L32.961 63.3137L32.3923 62.752C30.9338 61.2025 29.157 59.9078 27.2365 58.7938C25.3173 57.6448 23.1221 56.9347 20.8209 56.3365C18.4451 55.7601 15.9884 55.3807 13.5531 55.2724L12.6312 55.2416L11.7279 55.2746C11.117 55.2799 10.5279 55.3597 9.93565 55.4289C9.3372 55.4768 8.8005 55.6568 8.22073 55.7686C7.69779 55.9562 7.138 56.0968 6.68255 56.3571C4.72889 57.2635 3.69053 58.8499 3.89154 60.8018C4.11385 62.7475 5.36946 64.7493 7.07952 66.3292C8.79581 67.9305 10.9338 69.2351 13.2526 70.2095C15.582 71.1808 18.094 71.8676 20.6728 72.2691C23.2929 72.6932 25.8151 72.8223 28.3743 72.5246C30.9291 72.2512 33.4259 71.4633 35.7641 70.4098C36.2746 70.1796 36.7757 69.9175 37.2662 69.6585C36.9224 68.9964 36.571 68.348 36.1846 67.6983" fill="#E9B6BB"/>
</svg>
