<svg width="56" height="137" viewBox="0 0 56 137" fill="none" xmlns="http://www.w3.org/2000/svg">
<path d="M20.1565 74.7598C22.9085 75.6956 25.8313 76.301 28.7978 76.3398C31.7584 76.4114 34.7479 75.9361 37.4753 75.2232C40.2482 74.5071 42.9401 73.4838 45.4547 72.1252C47.9603 70.7538 50.2795 69.0341 52.1669 66.8892C53.1016 65.8039 53.9495 64.6357 54.5456 63.2992C55.1506 61.9755 55.5982 60.5228 55.5948 58.9454C55.6004 57.3809 55.0983 55.6932 54.0117 54.319C52.9379 52.9358 51.3912 51.9986 49.8645 51.4592C49.098 51.1438 48.3206 51.018 47.5527 50.8375C46.7894 50.7593 46.0158 50.6116 45.2827 50.6175C44.5317 50.5977 43.7915 50.5798 43.0706 50.6441L41.9886 50.7124L40.9388 50.8539C38.1414 51.2616 35.5053 51.9681 33.019 52.8474C30.5011 53.7774 28.0051 54.9028 25.9172 56.4605C23.8132 57.9816 21.9187 59.7199 20.44 61.6553L19.8644 62.3647L19.3614 63.1094C19.0267 63.6023 18.6811 64.0932 18.3664 64.6008C17.8114 65.6404 17.1748 66.6319 16.7419 67.6818C16.4516 68.3064 16.196 68.9258 15.9384 69.5561C15.398 69.2356 14.8705 68.9061 14.3596 68.5457C12.2925 67.1113 10.4483 65.4346 8.89573 63.5728C7.34511 61.7002 6.17932 59.625 5.31679 57.4908C3.65788 53.1663 3.26017 48.5236 3.65278 44.1892C4.04024 39.8202 5.20581 35.7009 6.67661 31.8945C8.14741 28.0881 9.96329 24.6241 11.8165 21.4596C13.6697 18.295 15.6 15.4593 17.5304 13.0066C21.395 8.07937 25.3992 4.78727 28.4007 2.83879C31.3965 0.923068 33.2962 0.176857 33.223 0.0175262C33.1889 -0.0447918 32.7026 0.0946988 31.7787 0.416079C30.8638 0.750308 29.5474 1.31782 27.9162 2.20149C24.6975 3.97653 20.3932 7.18194 16.2369 12.1028C14.1606 14.5523 12.0845 17.3848 10.0854 20.5462C8.09541 23.7204 6.13883 27.2159 4.50677 31.1065C2.88563 34.999 1.55817 39.2699 1.0461 43.8985C0.525031 48.5144 0.8232 53.4661 2.56827 58.3238C3.49381 60.7395 4.76822 63.0928 6.46602 65.2167C8.16573 67.3297 10.2047 69.2434 12.4961 70.875C13.2658 71.4275 14.08 71.9202 14.9089 72.3929C14.1022 74.9875 13.5822 77.5537 13.267 80.0434C12.2749 88.0337 13.0031 94.9534 13.9805 100.779C15.0235 106.617 16.4062 111.422 17.7804 115.381C20.5873 123.287 23.1869 127.833 24.8301 130.522C25.2022 131.094 25.5152 131.555 25.8012 131.977C25.3038 131.732 24.7975 131.474 24.2963 131.25C22.6713 130.502 21.0618 129.858 19.5152 129.303C16.4259 128.173 13.539 127.427 11.1038 126.93C6.21683 125.967 3.11998 126.029 3.07441 126.416C3.01729 126.867 5.95749 127.566 10.5317 129.026C12.8114 129.766 15.5087 130.692 18.4021 131.911C19.8497 132.516 21.3533 133.186 22.889 133.93C23.6568 134.302 24.4337 134.687 25.2047 135.104C25.5967 135.309 25.934 135.503 26.5277 135.777C27.0469 136.026 28.1347 136.308 28.9995 136.066C29.4473 135.954 29.854 135.755 30.2047 135.49C30.5427 135.235 30.7566 134.98 30.9576 134.733C31.327 134.235 31.5576 133.758 31.74 133.362C32.0901 132.591 32.4363 131.841 32.7806 131.102C33.4492 129.609 34.0754 128.165 34.6464 126.779C35.7884 124.007 36.7293 121.482 37.4461 119.333C38.8795 115.036 39.4561 112.277 39.0308 112.134C38.5964 111.979 37.2346 114.464 35.2492 118.506C34.271 120.541 33.1013 122.959 31.818 125.639C31.1763 126.978 30.4993 128.391 29.7927 129.843C29.4395 130.569 29.0823 131.317 28.7143 132.063C28.7104 132.085 28.6957 132.105 28.6809 132.125C28.4206 131.493 28.024 130.612 27.4084 129.377C26.1487 126.621 23.9006 122.125 21.3815 114.439C20.1448 110.595 18.8938 105.937 17.9364 100.317C17.0554 94.7106 16.3882 88.0833 17.3245 80.6012C17.5832 78.4957 18.0191 76.3426 18.6356 74.1876C19.1297 74.3873 19.6239 74.5871 20.1327 74.7669M20.4725 69.2632C20.8553 68.3058 21.4251 67.4377 21.9023 66.5195C22.1837 66.0735 22.483 65.6533 22.7753 65.2093L23.2173 64.5551L23.7209 63.9344C25.0005 62.2342 26.6246 60.7523 28.4112 59.4343C30.1927 58.0816 32.2967 57.1349 34.5184 56.2878C36.8165 55.4541 39.2168 54.8074 41.6255 54.4325L42.5385 54.3007L43.4399 54.2344C44.0477 54.1726 44.642 54.1873 45.2383 54.1911C45.8384 54.173 46.3916 54.2931 46.9801 54.3405C47.5205 54.4696 48.0923 54.5479 48.5736 54.7567C50.6149 55.4432 51.8211 56.906 51.8355 58.8682C51.8281 60.8266 50.7997 62.954 49.2734 64.7121C47.7432 66.4921 45.7613 68.0235 43.5634 69.2464C41.3547 70.4675 38.9332 71.4258 36.4141 72.1079C33.8563 72.8169 31.3635 73.222 28.787 73.207C26.2177 73.2157 23.6495 72.7065 21.2098 71.916C20.6772 71.7432 20.1503 71.5377 19.6343 71.3341C19.9034 70.6382 20.1815 69.9552 20.4944 69.267" fill="#E2D897"/>
</svg>
