<svg width="60" height="136" viewBox="0 0 60 136" fill="none" xmlns="http://www.w3.org/2000/svg">
<path d="M37.1235 73.1209C34.4909 74.353 31.6521 75.2755 28.7078 75.6396C25.7729 76.0356 22.7493 75.8913 19.9602 75.4819C17.1254 75.0744 14.3375 74.3527 11.689 73.2783C9.04807 72.1901 6.55417 70.7353 4.44282 68.8104C3.39468 67.8342 2.42366 66.7661 1.68455 65.5031C0.9379 64.2539 0.333563 62.859 0.163884 61.2908C-0.0133232 59.7364 0.300466 58.0037 1.22978 56.5186C2.14532 55.0259 3.57978 53.9247 5.03802 53.2209C5.76534 52.8233 6.52428 52.613 7.26766 52.3494C8.01776 52.1878 8.77048 51.9561 9.4998 51.8815C10.2442 51.7794 10.9779 51.6804 11.7015 51.6653L12.7844 51.6144L13.8434 51.6398C16.6687 51.7381 19.3664 52.1511 21.9342 52.7522C24.5389 53.4004 27.1433 54.245 29.3895 55.5642C31.6477 56.8453 33.7216 58.3651 35.4038 60.1266L36.0537 60.7685L36.6354 61.4536C37.0221 61.9067 37.4195 62.3568 37.7881 62.8268C38.4538 63.7992 39.1953 64.7149 39.7408 65.7109C40.0979 66.2999 40.42 66.8875 40.7451 67.4857C41.2471 67.1078 41.7353 66.7224 42.2035 66.3082C44.1007 64.6556 45.7498 62.7866 47.0887 60.7658C48.4245 58.7342 49.3555 56.5437 49.9786 54.3277C51.153 49.8473 51.0388 45.189 50.173 40.9239C49.3084 36.6237 47.6978 32.6572 45.8182 29.0352C43.9386 25.4132 41.7536 22.1694 39.5643 19.2273C37.3751 16.2852 35.1453 13.6785 32.9574 11.4524C28.5754 6.97902 24.2341 4.14621 21.0369 2.53885C17.849 0.963437 15.8788 0.430204 15.9342 0.263795C15.9612 0.198116 16.4599 0.283394 17.4135 0.501453C18.3595 0.73327 19.7303 1.1529 21.4486 1.85224C24.8426 3.26336 29.4727 5.97707 34.1439 10.4121C36.4764 12.619 38.8508 15.2065 41.1847 18.1295C43.511 21.0662 45.8394 24.3258 47.8885 28.0138C49.927 31.7049 51.7151 35.8044 52.732 40.3489C53.7564 44.8797 54.0034 49.8342 52.802 54.8541C52.1471 57.3568 51.1386 59.8357 49.6841 62.1331C48.2266 64.4198 46.4099 66.5457 44.3114 68.4189C43.6069 69.0525 42.8518 69.6316 42.0798 70.1924C43.1662 72.6828 43.9648 75.1764 44.5512 77.6166C46.4142 85.4498 46.4496 92.4075 46.1175 98.3057C45.7214 104.223 44.8743 109.15 43.9428 113.236C42.0204 121.402 39.9355 126.206 38.5972 129.059C38.2901 129.669 38.0296 130.161 37.7917 130.612C38.2591 130.314 38.734 130.001 39.2076 129.724C40.7407 128.802 42.2699 127.985 43.7463 127.265C46.6929 125.802 49.4805 124.744 51.8464 123.983C56.5983 122.489 59.6832 122.211 59.7709 122.59C59.8772 123.033 57.0315 124.05 52.6451 126.003C50.4603 126.988 47.8809 128.205 45.1388 129.735C43.7663 130.494 42.3454 131.326 40.9006 132.234C40.1782 132.688 39.4483 133.155 38.7277 133.655C38.3605 133.901 38.0466 134.131 37.4864 134.469C36.9978 134.773 35.9475 135.173 35.0614 135.027C34.6039 134.965 34.1779 134.812 33.8002 134.587C33.4363 134.37 33.1957 134.14 32.9688 133.918C32.547 133.463 32.2654 133.014 32.0407 132.64C31.608 131.912 31.1817 131.205 30.7584 130.508C29.93 129.098 29.1491 127.731 28.4294 126.416C26.9902 123.786 25.7778 121.379 24.8296 119.322C22.9332 115.208 22.0574 112.529 22.4645 112.341C22.8792 112.139 24.5055 114.459 26.9225 118.259C28.1181 120.175 29.546 122.45 31.1157 124.972C31.9005 126.233 32.7284 127.563 33.59 128.929C34.0208 129.612 34.4579 130.316 34.9055 131.017C34.9118 131.038 34.9286 131.056 34.9455 131.075C35.1349 130.418 35.4324 129.499 35.9089 128.204C36.8585 125.327 38.5997 120.611 40.2601 112.695C41.0675 108.738 41.7998 103.971 42.1348 98.2801C42.3952 92.6109 42.3312 85.9504 40.5794 78.6162C40.0913 76.5518 39.4217 74.4596 38.5724 72.3852C38.1032 72.6379 37.634 72.8907 37.1479 73.1253M36.2063 67.6921C35.7207 66.7825 35.0591 65.9821 34.484 65.1219C34.1554 64.7095 33.8118 64.3246 33.4725 63.9154L32.9615 63.3137L32.3927 62.752C30.9343 61.2024 29.1574 59.9078 27.237 58.7937C25.3178 57.6447 23.1226 56.9346 20.8214 56.3364C18.4457 55.7599 15.9889 55.3806 13.5536 55.2722L12.6317 55.2414L11.7284 55.2744C11.1175 55.2797 10.5284 55.3595 9.93616 55.4287C9.3377 55.4766 8.801 55.6566 8.22123 55.7684C7.69829 55.956 7.1385 56.0965 6.68304 56.3568C4.72938 57.2633 3.69101 58.8496 3.89201 60.8015C4.1143 62.7472 5.36989 64.749 7.07994 66.329C8.79622 67.9303 10.9342 69.2349 13.253 70.2093C15.5824 71.1807 18.0944 71.8675 20.6732 72.2689C23.2932 72.693 25.8155 72.8222 28.3747 72.5245C30.9295 72.2512 33.4263 71.4633 35.7645 70.4098C36.275 70.1796 36.7761 69.9175 37.2666 69.6585C36.9228 68.9964 36.5714 68.348 36.185 67.6983" fill="#88CBD7"/>
</svg>
