<svg width="91" height="91" viewBox="0 0 91 91" fill="none" xmlns="http://www.w3.org/2000/svg">
<rect x="0.129578" y="0.200195" width="90" height="90" rx="45" fill="#F7DADD"/>
<path d="M62.6993 25.2086C62.9656 25.2086 63.232 25.1896 63.4983 25.2086C64.5255 25.3038 65.2104 26.1218 65.1723 27.149C64.8489 35.1196 61.8433 42.0249 56.65 48.0172C53.1308 52.0691 48.8696 55.1888 44.19 57.7379C43.4671 58.1374 42.7252 58.5178 41.9643 58.8793C41.0131 59.3358 40.3093 59.2217 39.5674 58.4798C36.9613 55.8927 34.3741 53.3056 31.787 50.7184C31.0832 50.0146 30.95 49.3107 31.3875 48.4167C33.7654 43.5278 36.733 39.0383 40.6517 35.2147C45.6357 30.3639 51.4948 27.1109 58.3811 25.7413C59.085 25.6081 59.8078 25.513 60.5307 25.4179C61.2536 25.3228 61.9764 25.2467 62.6993 25.2277V25.2086ZM58.2289 37.4214C58.2289 34.4538 55.9081 32.152 52.9405 32.152C49.9539 32.152 47.5761 34.4919 47.5761 37.4214C47.5761 40.3509 50.011 42.7859 52.9405 42.7668C55.8701 42.7668 58.2289 40.3699 58.2289 37.4214Z" fill="#8E3C44"/>
<path d="M35.7248 33.0654C36.9233 33.0654 37.8935 33.3698 38.8636 33.6932C39.2821 33.8263 39.0348 33.9975 38.8827 34.1497C37.3228 35.7096 35.877 37.4026 34.5644 39.1718C33.5182 40.5985 32.548 42.0633 31.6539 43.6041C31.4637 43.9275 31.2925 44.0036 30.9501 43.8704C29.2761 43.3188 27.583 42.7861 25.909 42.2345C24.9769 41.9301 24.8247 41.2453 25.5095 40.5604C27.4499 38.6201 29.4092 36.6988 31.5969 35.0248C32.3578 34.435 33.1568 33.9024 34.0318 33.4839C34.6025 33.2176 35.1922 33.0273 35.6868 33.0654H35.7248Z" fill="#8E3C44"/>
<path d="M57.2969 54.6559C57.3349 55.3597 56.9735 56.1396 56.536 56.9006C55.6039 58.4985 54.4054 59.9062 53.1689 61.2568C52.0846 62.4743 50.9242 63.6347 49.7638 64.7761C49.079 65.4609 48.3942 65.3087 48.0898 64.3766C47.5381 62.7026 47.0055 61.0285 46.4538 59.3545C46.3397 59.0311 46.3967 58.8599 46.7011 58.6697C49.7067 56.9196 52.5221 54.9031 55.0712 52.5253C55.4707 52.1638 55.8512 51.7834 56.2316 51.4219C56.4218 51.2317 56.555 51.1556 56.6691 51.498C56.9735 52.4682 57.2779 53.4574 57.2969 54.6749V54.6559Z" fill="#8E3C44"/>
<path d="M26.9172 62.6265C27.1075 60.0204 27.7162 57.5093 28.9337 55.1885C29.1619 54.751 29.2 54.732 29.5614 55.0934C31.4637 56.9957 33.366 58.879 35.2683 60.7813C35.5537 61.0666 35.5346 61.1998 35.1732 61.39C33.1568 62.4363 30.9882 63.045 28.7244 63.3113C28.2869 63.3684 27.8303 63.3874 27.3928 63.4255C26.8792 63.4826 26.8411 63.4255 26.8792 62.8928C26.8792 62.7977 26.8792 62.7216 26.8982 62.6265H26.9172Z" fill="#8E3C44"/>
<path d="M52.9406 40.2562C51.3236 40.2562 50.0681 39.0388 50.0491 37.4408C50.0491 35.881 51.3427 34.5874 52.9216 34.5874C54.5195 34.5874 55.775 35.8239 55.794 37.4218C55.794 39.0388 54.5766 40.2562 52.9406 40.2562Z" fill="#8E3C44"/>
</svg>
