<svg width="91" height="91" viewBox="0 0 91 91" fill="none" xmlns="http://www.w3.org/2000/svg">
<rect x="0.129578" y="0.200195" width="90" height="90" rx="45" fill="#EFEAC8"/>
<path d="M71.5079 17.7083C72.3183 18.1075 72.6503 18.7446 72.6315 19.6585C72.5912 21.6249 72.6221 23.5926 72.6181 25.559C72.6154 26.7767 71.9877 27.4003 70.7633 27.403C68.7068 27.4071 66.6504 27.4071 64.594 27.403C63.4139 27.4003 62.7876 26.7633 62.7782 25.5738C62.7782 25.5375 62.7782 25.5025 62.7782 25.4662C62.7755 24.6123 62.3557 24.1853 61.5188 24.1853C60.0349 24.1853 58.5497 24.1827 57.0659 24.188C56.8965 24.188 56.7151 24.1329 56.5148 24.262C57.2514 24.7982 57.9852 25.2982 58.6546 25.8829C62.8104 29.5119 65.2082 34.071 65.8507 39.544C65.9286 40.2093 66.1235 40.6152 66.7727 40.9687C69.2969 42.3423 70.0307 45.3329 68.5402 47.8033C67.18 50.0586 64.0496 50.732 61.7459 49.2643C58.7244 47.3396 58.8441 42.7818 61.9946 40.9875C62.5241 40.6864 62.629 40.3598 62.5591 39.8316C62.0335 35.8774 60.4381 32.4339 57.6532 29.5643C55.4893 27.3358 52.902 25.8063 49.9141 24.9447C49.5391 24.8372 49.3496 24.9071 49.1318 25.2364C47.2206 28.1369 42.9921 28.1356 41.0809 25.2337C40.8631 24.9017 40.6696 24.8278 40.2973 24.9461C33.5299 27.0939 29.4171 31.6597 27.8714 38.5642C27.7545 39.0857 27.7182 39.6233 27.6389 40.1529C27.5864 40.4996 27.7209 40.6999 28.0381 40.8733C30.5367 42.2402 31.366 45.0802 30.0192 47.5882C28.5018 50.4135 24.3728 50.904 22.2357 48.513C19.9521 45.9565 20.7129 42.1864 23.8137 40.7523C24.1389 40.6018 24.2464 40.4109 24.2814 40.0695C24.7209 35.6247 26.323 31.6557 29.2061 28.2269C30.3848 26.8251 31.7316 25.5993 33.2436 24.559C33.3834 24.4622 33.5649 24.4098 33.663 24.1786C32.1375 24.1786 30.6429 24.1706 29.1469 24.1827C28.6133 24.1867 27.9507 23.9663 27.5824 24.2781C27.1926 24.6074 27.4749 25.2888 27.4386 25.8143C27.3795 26.7001 26.7437 27.3856 25.8607 27.3936C23.6255 27.4111 21.3903 27.4057 19.1551 27.395C18.3998 27.3909 17.9616 26.9084 17.6336 26.2915C17.635 23.5483 17.6417 20.8023 17.6269 18.0564C17.6256 17.7594 17.6874 17.6989 17.9831 17.7002C20.764 17.715 23.5462 17.7083 26.3284 17.7083C27.1389 18.1075 27.526 18.7446 27.4426 19.6585C27.4211 19.8884 27.4615 20.1249 27.4346 20.3547C27.3848 20.7943 27.5864 20.9058 27.995 20.8978C28.995 20.8762 29.9977 20.891 30.9977 20.891C34.0003 20.891 37.0043 20.891 40.007 20.891C40.2543 20.891 40.5083 20.9287 40.6414 20.6249C41.3228 19.0752 42.5473 18.1693 44.14 17.7096H46.0714C47.562 18.1411 48.7649 18.9542 49.4464 20.387C49.6439 20.8023 49.8912 20.9004 50.3133 20.8991C54.0673 20.8857 57.8212 20.891 61.5752 20.891C62.7741 20.891 62.8118 20.8897 62.7634 19.7136C62.7257 18.7849 63.047 18.1182 63.8857 17.7096H71.5052L71.5079 17.7083Z" fill="#5A500D"/>
<path d="M43.4384 31.9541C43.5862 32.1396 43.5338 32.3251 43.5338 32.4958C43.5365 37.1637 43.5298 41.8303 43.5459 46.4982C43.5472 46.9552 43.4034 47.1931 42.9881 47.3974C41.0701 48.3396 40.1239 50.2536 40.4263 52.4807C40.6629 54.2199 42.2421 55.857 44.0862 56.275C46.8173 56.8946 49.5754 54.8973 49.8133 52.1285C49.9947 50.0184 49.0445 48.2993 47.156 47.3558C46.8617 47.2079 46.6735 47.0601 46.6735 46.6824C46.6843 41.8894 46.6803 37.0978 46.6829 32.3049C46.6829 32.2001 46.7058 32.0966 46.7192 31.9837C46.9921 31.9796 47.0405 32.2095 47.1386 32.3573C51.16 38.3801 55.1761 44.4055 59.1908 50.4337C59.844 51.4148 59.8212 52.0923 59.0174 52.9417C56.6075 55.486 54.9342 58.4389 54.0229 61.822C53.8979 62.287 53.8011 62.7601 53.703 63.2319C53.6385 63.541 53.4893 63.6606 53.1748 63.5397C51.6923 62.9725 50.1412 62.9227 48.5808 62.9268C46.1843 62.9322 43.7878 62.9308 41.3913 62.9268C39.9196 62.9254 38.4586 62.998 37.0648 63.5316C36.6145 63.7037 36.5554 63.4201 36.4909 63.0934C35.9317 60.2843 34.8229 57.7078 33.1912 55.357C32.5985 54.5035 31.9036 53.7334 31.2127 52.9605C30.4211 52.0748 30.3687 51.4243 31.0152 50.4525C35.0393 44.4096 39.0661 38.3693 43.0943 32.3304C43.1816 32.1987 43.2488 32.0455 43.4397 31.9554L43.4384 31.9541Z" fill="#5A500D"/>
<path d="M45.1574 72.6927C42.1534 72.6927 39.1494 72.6927 36.1454 72.6927C35.9492 72.6927 35.7516 72.6994 35.5554 72.6832C34.4667 72.5878 33.7947 71.5421 34.1576 70.5126C35.1038 67.8258 37.5271 66.0839 40.3658 66.0745C43.5311 66.0637 46.6964 66.0637 49.8616 66.0745C52.6963 66.0839 55.1277 67.8379 56.0645 70.522C56.4409 71.5999 55.7151 72.6604 54.5471 72.6846C53.1533 72.7128 51.7581 72.694 50.363 72.694C48.6278 72.694 46.8939 72.694 45.1588 72.694L45.1574 72.6927Z" fill="#5A500D"/>
<path d="M45.1037 53.2642C44.1642 53.2628 43.4518 52.5343 43.4639 51.5894C43.476 50.6741 44.191 49.9752 45.1117 49.9766C46.0512 49.9779 46.7636 50.7064 46.7515 51.6513C46.7394 52.5666 46.0243 53.2655 45.1037 53.2642Z" fill="#5A500D"/>
</svg>
