<svg width="90" height="91" viewBox="0 0 90 91" fill="none" xmlns="http://www.w3.org/2000/svg">
<rect y="0.200195" width="90" height="90" rx="45" fill="#C6EDF4"/>
<path d="M72.5 56.783C72.1076 57.4561 71.5218 57.6839 70.747 57.681C65.3591 57.6624 59.9699 57.671 54.582 57.671C54.0884 57.671 53.8406 57.914 53.8387 58.3999C53.8387 59.5614 53.853 60.7229 53.8315 61.8844C53.8244 62.3012 53.9604 62.4501 54.3858 62.443C55.7822 62.4229 57.1785 62.433 58.5749 62.4373C59.8453 62.4416 60.5685 63.1591 60.5914 64.4266C60.6096 65.43 60.1131 65.9318 59.102 65.9318C53.0338 65.9318 46.9657 65.9318 40.8961 65.9318C40.1428 65.9318 40.1428 65.9289 40.1399 65.2028C40.1385 64.8806 40.1327 64.5597 40.1428 64.2375C40.1757 63.1849 40.8932 62.4544 41.9516 62.4401C43.401 62.4215 44.8518 62.4172 46.3011 62.4444C46.778 62.453 46.9198 62.2955 46.9084 61.8286C46.8797 60.6499 46.8754 59.4698 46.9098 58.2911C46.9241 57.7855 46.7508 57.6581 46.2653 57.6595C40.8775 57.6738 35.4882 57.6681 30.1003 57.6681C28.5808 57.6681 28.1325 57.2141 28.1311 55.6745C28.1311 55.3351 28.1354 54.9957 28.1325 54.6562C28.1296 54.3555 28.2456 54.1879 28.575 54.1908C29.3441 54.1979 30.1132 54.2037 30.8766 54.0719C30.9954 54.0518 31.1974 54.0203 31.2246 54.1292C31.3563 54.6562 31.7702 54.4987 32.0939 54.4987C44.2488 54.5044 56.4037 54.503 68.5586 54.503C69.1038 54.503 69.3769 54.2271 69.3778 53.6752C69.3778 45.2597 69.3778 36.8456 69.3778 28.4302C69.3778 27.8964 69.1124 27.6291 68.5816 27.6281C56.4095 27.6281 44.2359 27.6281 32.0638 27.6267C31.6413 27.6267 31.2088 27.568 31.2747 28.2268C31.3033 28.5118 31.0513 28.5161 30.8522 28.4803C30.1247 28.3485 29.39 28.3671 28.6567 28.3757C28.2514 28.38 28.1182 28.2053 28.1282 27.8272C28.1425 27.2386 28.1153 26.6471 28.1382 26.0585C28.1783 24.9772 28.7068 24.4773 29.7953 24.4773C43.5084 24.4759 57.2201 24.4802 70.9332 24.4688C71.6622 24.4688 72.1706 24.738 72.5 25.3725V56.783Z" fill="#233D42"/>
<path d="M17.5043 39.8448C18.0414 39.8377 18.5784 39.8119 19.1141 39.8262C19.6397 39.8405 19.9591 39.6314 20.0865 39.1116C20.3142 38.1864 20.6809 37.3156 21.1821 36.5036C21.4256 36.1083 21.3612 35.7574 21.0418 35.438C20.7382 35.1344 20.4431 34.8222 20.1309 34.5286C19.9161 34.3281 19.9161 34.1648 20.108 33.94C20.562 33.4072 21.0547 32.9174 21.5874 32.4648C21.818 32.2686 21.9813 32.2901 22.1775 32.4992C22.4596 32.7985 22.7561 33.0835 23.0526 33.37C23.4006 33.708 23.7672 33.7896 24.2112 33.5132C24.9903 33.0277 25.8296 32.6696 26.7261 32.462C27.2703 32.3359 27.5066 32.0166 27.478 31.4652C27.4594 31.1085 27.4895 30.7505 27.4723 30.3939C27.4536 30 27.6384 29.8439 28.0165 29.8482C28.6424 29.8554 29.2697 29.854 29.8955 29.8497C30.2493 29.8482 30.4226 30 30.4111 30.3681C30.3982 30.7791 30.4168 31.1902 30.4111 31.6012C30.4039 32.038 30.603 32.3144 31.0269 32.4219C32.0051 32.6711 32.9303 33.0434 33.7896 33.5748C34.1548 33.801 34.4828 33.685 34.7678 33.4244C35.0972 33.1222 35.4137 32.8057 35.7231 32.4834C35.9064 32.293 36.0625 32.2729 36.273 32.4491C36.823 32.9102 37.3171 33.4244 37.7897 33.9629C37.9673 34.1648 37.9701 34.3224 37.7725 34.51C37.4603 34.805 37.1667 35.1187 36.8602 35.418C36.5179 35.7502 36.4506 36.1183 36.707 36.5279C37.2254 37.3543 37.572 38.2508 37.814 39.1889C37.9315 39.6443 38.215 39.8348 38.6719 39.8248C39.0658 39.8162 39.4596 39.8363 39.8535 39.8234C40.2101 39.8119 40.3963 39.9623 40.3977 40.3203C40.4006 40.9806 40.4006 41.6422 40.3934 42.3025C40.3891 42.6032 40.2301 42.7565 39.9193 42.755C39.4897 42.7522 39.06 42.7636 38.6304 42.7593C38.1921 42.755 37.9214 42.9584 37.814 43.3809C37.5706 44.339 37.1996 45.2442 36.684 46.0906C36.4592 46.4601 36.5165 46.8081 36.8201 47.1146C37.1094 47.4067 37.393 47.7061 37.6952 47.9839C37.9372 48.2059 37.9802 48.405 37.7439 48.6628C37.2841 49.164 36.8101 49.6481 36.2974 50.0978C36.0797 50.2897 35.8978 50.2783 35.6987 50.0677C35.4166 49.7698 35.1144 49.4891 34.8265 49.1941C34.4942 48.8533 34.1262 48.7859 33.7123 49.0337C32.8787 49.5335 31.9908 49.9059 31.0456 50.1408C30.593 50.2539 30.3982 50.5447 30.4082 51.0001C30.4168 51.3925 30.3982 51.7864 30.4082 52.1788C30.4183 52.5325 30.2664 52.7201 29.9084 52.723C29.2639 52.7259 28.6194 52.7273 27.9764 52.723C27.6241 52.7216 27.4594 52.5454 27.4708 52.1859C27.4837 51.7749 27.4665 51.3639 27.4708 50.9528C27.4737 50.5432 27.2975 50.264 26.8922 50.1594C25.8983 49.9016 24.9588 49.5221 24.0766 48.9922C23.7243 48.7802 23.3877 48.8676 23.0998 49.1497C22.8062 49.4376 22.5069 49.7197 22.2262 50.0219C22.0042 50.2611 21.808 50.3055 21.5459 50.0706C21.0532 49.6281 20.5849 49.1626 20.1424 48.6699C19.9132 48.415 19.9347 48.2159 20.181 47.9882C20.4703 47.7233 20.741 47.4354 21.0146 47.1533C21.3569 46.8009 21.4227 46.4228 21.1435 45.9918C20.6336 45.2026 20.3042 44.3347 20.0765 43.4296C19.9562 42.9512 19.6769 42.7651 19.1957 42.7479C18.63 42.7264 18.05 42.8768 17.5 42.6319V39.8448H17.5043ZM28.9402 47.1862C32.3059 47.0859 34.8179 44.5667 34.838 41.267C34.858 38.0303 32.1798 35.4037 28.9632 35.3807C25.7508 35.3578 23.0039 38.0818 23.0225 41.2699C23.0411 44.5109 25.7135 47.1833 28.9402 47.1848V47.1862Z" fill="#233D42"/>
<path d="M52.1989 40.0865C50.8039 40.0865 49.409 40.0894 48.014 40.0865C47.1905 40.0836 46.8497 39.79 46.8439 38.9694C46.8268 36.1308 46.8268 33.2922 46.8425 30.4551C46.8468 29.6029 47.1805 29.3136 48.0412 29.3122C50.8498 29.3093 53.6583 29.3093 56.4653 29.3122C57.3246 29.3122 57.6598 29.6044 57.6641 30.4551C57.6798 33.275 57.6798 36.0964 57.6655 38.9164C57.6612 39.7943 57.3289 40.0851 56.4381 40.0865C55.0246 40.0894 53.6124 40.0865 52.1989 40.0865ZM51.2851 37.2307C51.5615 37.2121 51.7621 37.0102 51.9554 36.7953C52.9064 35.7298 53.8588 34.6657 54.8083 33.5987C55.4957 32.8268 55.4843 32.8382 54.7181 32.1336C54.4503 31.8873 54.3085 31.913 54.0807 32.1766C53.3246 33.0574 52.5483 33.9195 51.7721 34.7831C51.2694 35.3417 51.2651 35.3374 50.8197 34.7516C50.1594 33.8823 50.1666 33.8895 49.3488 34.5712C49.1225 34.7602 49.0839 34.9092 49.2701 35.1469C49.7126 35.7069 50.1337 36.2841 50.5705 36.8498C50.7395 37.0675 50.9471 37.2307 51.2837 37.2307H51.2851Z" fill="#233D42"/>
<path d="M52.2619 42.0604C53.6754 42.0604 55.0876 42.0575 56.5011 42.0604C57.3418 42.0618 57.6555 42.3296 57.6612 43.1703C57.6798 46.0261 57.6784 48.8833 57.6612 51.739C57.6555 52.5153 57.3003 52.8246 56.5097 52.8275C53.6654 52.8332 50.8211 52.8346 47.9768 52.8275C47.1948 52.826 46.8482 52.5081 46.844 51.7204C46.8282 48.8646 46.8253 46.0074 46.8468 43.1517C46.8525 42.3196 47.1691 42.0618 48.0241 42.0604C49.4376 42.0575 50.8498 42.0604 52.2633 42.0604H52.2619ZM54.7181 48.995C54.6808 48.7558 54.5032 48.6455 54.3686 48.5095C53.6592 47.7886 53.6559 47.0773 54.3586 46.3755C54.8928 45.8399 54.9086 45.9673 54.35 45.4059C53.9824 45.0374 53.6143 45.0369 53.2458 45.4045C53.1828 45.4675 53.1198 45.532 53.0553 45.5935C52.1187 46.5001 52.3894 46.4972 51.4412 45.5878C50.5877 44.7686 50.8913 44.6984 49.9174 45.6365C49.7126 45.8341 49.714 45.9702 49.9203 46.1593C50.2368 46.4486 50.5175 46.778 50.8383 47.0601C51.1305 47.3179 51.1634 47.5284 50.8541 47.7991C50.5447 48.0698 50.2669 48.3748 49.979 48.6684C49.8931 48.7558 49.7484 48.856 49.8014 48.9778C49.969 49.3659 50.3012 49.6366 50.6292 49.8657C50.8884 50.0476 51.0044 49.6881 51.1677 49.555C51.5386 49.2513 51.8007 48.6469 52.2318 48.6341C52.703 48.6197 52.9508 49.2599 53.3417 49.5607C53.5079 49.6881 53.6139 50.0491 53.8831 49.8629C54.2125 49.6337 54.5133 49.343 54.7181 48.9964V48.995Z" fill="#233D42"/>
<path d="M63.715 29.3112C64.9839 29.3112 66.2528 29.3269 67.5217 29.3026C67.9886 29.294 68.1562 29.4515 68.139 29.9198C68.096 31.0985 68.318 31.047 67.0162 31.047C64.6932 31.047 62.3702 31.0484 60.0458 31.047C59.2853 31.047 59.2666 31.0226 59.2638 30.2664C59.2638 30.1232 59.2738 29.98 59.2638 29.8382C59.2337 29.4458 59.4142 29.3026 59.8023 29.3054C61.107 29.3183 62.4117 29.3097 63.7164 29.3097L63.715 29.3112Z" fill="#233D42"/>
<path d="M63.715 34.527C62.4261 34.527 61.1371 34.5127 59.8481 34.5341C59.4042 34.5413 59.2495 34.3823 59.2566 33.9441C59.2753 32.6838 59.1979 32.8513 60.3566 32.8485C62.7197 32.8413 65.0827 32.8614 67.4458 32.8356C67.9958 32.8299 68.2078 33.0074 68.1319 33.5416C68.119 33.629 68.1319 33.7207 68.1304 33.8095C68.1261 34.5227 68.1261 34.5256 67.4201 34.527C66.1855 34.5284 64.9496 34.527 63.715 34.527Z" fill="#233D42"/>
<path d="M63.6835 43.7404C62.3974 43.7404 61.1113 43.7289 59.8252 43.7461C59.4099 43.7518 59.2538 43.6072 59.2581 43.189C59.2724 41.8642 59.1951 42.0676 60.3709 42.0618C62.7469 42.0532 65.1229 42.0704 67.4974 42.0504C67.9872 42.0461 68.1533 42.2008 68.139 42.6906C68.1047 43.8721 68.2264 43.7318 67.1122 43.7375C65.9693 43.7446 64.8264 43.7389 63.6821 43.7375L63.6835 43.7404Z" fill="#233D42"/>
<path d="M63.7465 45.5964C65.014 45.5964 66.2829 45.6107 67.5504 45.5892C67.9886 45.582 68.149 45.7238 68.139 46.1692C68.1103 47.4238 68.2364 47.2691 67.0591 47.272C64.7018 47.2792 62.3458 47.2749 59.9885 47.272C59.2752 47.272 59.2695 47.262 59.2638 46.5602C59.2638 46.4714 59.2738 46.3812 59.2623 46.2924C59.195 45.7711 59.3841 45.5649 59.9441 45.582C61.2101 45.6193 62.479 45.5935 63.7465 45.5935V45.5964Z" fill="#233D42"/>
<path d="M30.7076 37.9882C30.2937 39.5321 29.9012 40.9973 29.5088 42.4624C29.3012 43.2386 29.0849 44.012 28.8858 44.7911C28.8042 45.1076 28.6696 45.2379 28.3172 45.1391C26.8349 44.7238 27.0899 44.9386 27.4164 43.6668C27.9091 41.7477 28.4547 39.8415 28.946 37.9224C29.0663 37.454 29.2496 37.2765 29.7236 37.4669C29.9542 37.56 30.2049 37.6044 30.4455 37.6717C30.6503 37.7276 30.7534 37.845 30.7076 37.9897V37.9882Z" fill="#233D42"/>
<path d="M23.382 41.3052C23.3677 40.9988 23.508 40.7753 23.7014 40.5806C24.3931 39.8845 25.0934 39.1971 25.7795 38.4967C25.9971 38.2733 26.1704 38.2418 26.4025 38.481C27.4995 39.6181 27.425 39.2143 26.4655 40.2254C26.2206 40.4846 25.9714 40.741 25.7064 40.9801C25.4658 41.1978 25.4715 41.3754 25.7064 41.5988C26.1461 42.0156 26.56 42.461 26.9997 42.8792C27.2317 43.0983 27.2474 43.2673 27.0083 43.4965C25.8826 44.5735 26.2578 44.5133 25.2538 43.5495C24.7383 43.0554 24.2413 42.5441 23.7386 42.0385C23.5324 41.8323 23.3648 41.6031 23.3834 41.3067L23.382 41.3052Z" fill="#233D42"/>
<path d="M34.5043 41.2627C34.5172 41.5491 34.3854 41.7568 34.2035 41.9387C33.496 42.6462 32.7814 43.348 32.0825 44.064C31.8605 44.2903 31.6944 44.3161 31.4638 44.0741C30.3868 42.9498 30.4441 43.3308 31.4094 42.3182C31.4466 42.2795 31.4853 42.2423 31.5225 42.2051C32.1517 41.5778 32.1455 40.9448 31.5039 40.306C31.4781 40.2802 31.4538 40.2559 31.428 40.2301C30.4928 39.3006 30.4971 39.3063 31.5096 38.4413C31.7158 38.2651 31.8648 38.2523 32.0553 38.4442C32.7843 39.1817 33.5218 39.9107 34.2494 40.6483C34.4169 40.8173 34.5158 41.0278 34.5043 41.2613V41.2627Z" fill="#233D42"/>
</svg>
