<svg width="90" height="91" viewBox="0 0 90 91" fill="none" xmlns="http://www.w3.org/2000/svg">
<rect y="0.200195" width="90" height="90" rx="45" fill="#EFEAC8"/>
<path d="M28.3627 23.1693C28.4694 23.2135 28.6113 23.2669 28.75 23.3294C29.8817 23.8312 31.0194 24.3238 32.1419 24.8454C32.5079 25.0147 32.8022 25.0055 33.1545 24.7981C34.9862 23.7168 36.9307 22.8994 38.9972 22.3839C39.3465 22.297 39.5478 22.1246 39.6744 21.7815C40.109 20.601 40.5833 19.4374 41.0164 18.257C41.1598 17.8604 41.3703 17.6957 41.808 17.7003C43.9431 17.7201 46.0767 17.7186 48.2119 17.7003C48.6237 17.6972 48.8311 17.8452 48.9699 18.2219C49.4137 19.4191 49.8941 20.6026 50.3364 21.7982C50.4553 22.12 50.6429 22.2863 50.9708 22.3686C53.0724 22.8963 55.0535 23.7275 56.9157 24.8317C57.2344 25.0208 57.5043 25.0071 57.8261 24.8607C58.97 24.3375 60.1275 23.8449 61.2668 23.3142C61.6267 23.1464 61.8829 23.1556 62.1757 23.4515C63.7176 25.0086 65.2732 26.5535 66.8334 28.0923C67.0896 28.3455 67.0484 28.5712 66.9173 28.8579C66.3957 30.0018 65.9016 31.1578 65.3724 32.3001C65.197 32.6783 65.1878 32.9879 65.4105 33.3646C66.4842 35.178 67.297 37.1057 67.8064 39.1524C67.904 39.5474 68.1069 39.7594 68.4866 39.8967C69.6503 40.3206 70.7956 40.7919 71.9593 41.2159C72.3634 41.3638 72.5053 41.5926 72.5007 42.0196C72.4824 44.1349 72.4778 46.2502 72.5037 48.3656C72.5098 48.8338 72.3268 49.0473 71.9166 49.1983C70.7377 49.6329 69.5725 50.1072 68.3921 50.5404C68.0657 50.6608 67.9086 50.856 67.8262 51.1794C67.297 53.2611 66.4826 55.227 65.3891 57.0739C65.1924 57.4079 65.1863 57.69 65.3464 58.0347C65.8726 59.177 66.3606 60.3361 66.8944 61.4753C67.0683 61.8459 67.0256 62.0869 66.7327 62.3752C65.2107 63.8713 63.7008 65.3811 62.2047 66.9032C61.9043 67.2097 61.6542 67.2677 61.2592 67.0816C60.1397 66.5524 58.9959 66.0766 57.8719 65.555C57.5074 65.3857 57.2115 65.3888 56.8592 65.5977C55.0444 66.6698 53.1181 67.4858 51.073 67.9982C50.6551 68.1034 50.4355 68.3124 50.2906 68.7135C49.8773 69.8604 49.4121 70.9889 48.9897 72.1328C48.8463 72.5201 48.6496 72.7047 48.2043 72.7001C46.0691 72.6788 43.9355 72.6788 41.8004 72.7001C41.355 72.7047 41.1568 72.5232 41.0134 72.1343C40.5772 70.9554 40.1029 69.7902 39.6713 68.6098C39.5447 68.2636 39.3343 68.1004 38.9881 68.0135C36.9246 67.4904 34.977 66.6805 33.1469 65.5977C32.7931 65.3888 32.4972 65.3918 32.1342 65.5596C31.0102 66.0812 29.8664 66.5555 28.747 67.0847C28.3505 67.2723 28.1019 67.2113 27.8014 66.9062C26.3053 65.3842 24.7954 63.8743 23.2734 62.3782C22.9821 62.0915 22.9333 61.852 23.1072 61.4799C23.6333 60.359 24.1107 59.2151 24.6323 58.0927C24.8107 57.7099 24.8061 57.4018 24.585 57.0281C23.5128 55.2148 22.7015 53.2855 22.1906 51.2388C22.0991 50.8743 21.9313 50.6502 21.5607 50.5159C20.397 50.0935 19.2502 49.6238 18.088 49.1967C17.6808 49.0473 17.4902 48.8399 17.4963 48.3686C17.5222 46.2533 17.5176 44.138 17.4993 42.0226C17.4948 41.5941 17.6381 41.3684 18.0423 41.2204C19.2227 40.7888 20.3879 40.313 21.5668 39.8783C21.9054 39.7533 22.0884 39.5596 22.1768 39.2073C22.6984 37.124 23.522 35.1597 24.6155 33.3143C24.8153 32.9773 24.8061 32.6951 24.6475 32.3535C24.129 31.228 23.6501 30.0857 23.1239 28.9662C22.944 28.585 22.9577 28.3272 23.2749 28.0161C24.8137 26.5093 26.3266 24.9766 27.8518 23.456C27.9829 23.3249 28.0958 23.1525 28.3596 23.1708L28.3627 23.1693ZM45.0214 31.1685C37.2967 31.1639 30.9767 37.4519 30.9675 45.1522C30.9584 52.9104 37.2464 59.2304 44.9802 59.235C52.7033 59.2395 59.0233 52.95 59.034 45.2498C59.0447 37.4885 52.7582 31.1731 45.0214 31.1685Z" fill="#5A500D"/>
<path d="M41.991 46.659C41.991 45.3824 41.991 44.1059 41.991 42.8294C41.991 42.2997 41.7343 42.0343 41.2208 42.0333C40.8395 42.0333 40.4583 42.0364 40.0785 42.0303C39.9504 42.0287 39.7857 42.0714 39.7125 41.9372C39.621 41.7679 39.7811 41.6581 39.8757 41.5483C40.8716 40.3953 41.872 39.2454 42.8725 38.0955C43.4719 37.4061 44.0865 36.7275 44.6706 36.0244C44.9207 35.724 45.0824 35.7285 45.3355 36.0244C46.9262 37.8728 48.5306 39.7075 50.1289 41.5483C50.2235 41.6581 50.3836 41.7664 50.2921 41.9372C50.2189 42.0714 50.0542 42.0287 49.9261 42.0303C49.5067 42.0364 49.0842 42.0669 48.6694 42.0257C48.1204 41.9708 47.9984 42.2087 48.0029 42.715C48.0243 45.2864 48.0136 47.8592 48.0121 50.4305C48.0121 51.004 47.7325 51.2917 47.1733 51.2937C45.7061 51.2937 44.239 51.2953 42.7734 51.2937C41.994 51.2937 41.9925 51.2892 41.9925 50.4885C41.9925 49.212 41.9925 47.9355 41.9925 46.659H41.991Z" fill="#5A500D"/>
<path d="M44.971 55.6388C44.0575 55.6388 43.1424 55.6464 42.2289 55.6358C41.5289 55.6281 41.111 55.2758 41.0851 54.7009C41.0591 54.1213 41.5029 53.6714 42.203 53.6638C44.0697 53.644 45.9364 53.644 47.8031 53.6638C48.5032 53.6714 48.947 54.1229 48.9195 54.7024C48.8921 55.2758 48.4727 55.6281 47.7726 55.6342C46.8393 55.6434 45.9059 55.6373 44.9726 55.6373L44.971 55.6388Z" fill="#5A500D"/>
</svg>
