<svg width="90" height="91" viewBox="0 0 90 91" fill="none" xmlns="http://www.w3.org/2000/svg">
<rect y="0.200195" width="90" height="90" rx="45" fill="#F7DADD"/>
<path d="M28.4902 47.5173C28.4902 41.0373 28.4902 34.5559 28.4902 28.076C28.4902 26.4549 29.2085 25.7335 30.8175 25.732C32.6658 25.732 34.5157 25.7396 36.364 25.7259C36.7301 25.7228 36.9527 25.8357 37.1357 26.1682C37.6908 27.1823 38.6059 27.649 39.7298 27.6551C43.2374 27.6734 46.7435 27.6718 50.2511 27.6551C51.3766 27.649 52.2931 27.1838 52.8452 26.1682C53.045 25.8021 53.3012 25.7244 53.6748 25.7259C55.5811 25.7381 57.4874 25.7259 59.3922 25.7335C60.69 25.7381 61.4876 26.5387 61.4892 27.8457C61.4953 31.8672 61.4922 35.8888 61.4922 39.9103C61.4922 48.9264 61.4922 57.9409 61.4922 66.957C61.4922 68.6742 60.7892 69.3711 59.0582 69.3711C49.6609 69.3711 40.2651 69.3711 30.8678 69.3711C29.2146 69.3711 28.4918 68.6544 28.4918 67.0149C28.4918 60.5152 28.4918 54.0155 28.4918 47.5157L28.4902 47.5173ZM45.0095 46.3094C49.5892 46.1859 53.138 42.7317 53.1639 38.0864C53.1883 33.589 49.4825 29.9091 45.0004 29.9472C40.4176 29.9869 36.8216 33.4762 36.8277 38.123C36.8338 42.8399 40.5045 46.2133 45.0095 46.3094ZM31.1743 51.8316C31.1743 52.3272 31.1682 52.8214 31.1743 53.317C31.1896 54.383 31.8392 55.0784 32.9068 55.1105C33.9346 55.141 34.964 55.144 35.9904 55.1105C37.0335 55.0754 37.7 54.3357 37.6634 53.3322C37.6527 53.0272 37.6024 52.7299 37.2333 52.7009C36.8505 52.6719 36.6858 52.9266 36.6797 53.2773C36.6706 53.8691 36.3518 54.0734 35.7998 54.0658C34.8863 54.0521 33.9712 54.0688 33.0577 54.0597C32.3852 54.0536 32.1702 53.8416 32.161 53.1691C32.1488 52.3501 32.1549 51.5312 32.158 50.7122C32.161 49.7697 32.3547 49.5547 33.2911 49.5623C34.2991 49.57 35.3087 49.483 36.3137 49.6264C36.6065 49.6676 36.8597 49.5959 36.9314 49.268C37 48.9554 36.8383 48.7556 36.5455 48.6641C36.4022 48.6199 36.2497 48.5711 36.1017 48.5711C34.9976 48.5634 33.8919 48.5406 32.7893 48.5741C31.8408 48.6016 31.2033 49.2848 31.1774 50.2349C31.1621 50.7671 31.1743 51.3009 31.1728 51.8347L31.1743 51.8316ZM34.412 66.4629C34.964 66.4629 35.5161 66.4781 36.0682 66.4598C37.0366 66.4278 37.6954 65.708 37.6649 64.7457C37.6558 64.4407 37.607 64.1509 37.2333 64.1158C36.8368 64.0792 36.695 64.337 36.6812 64.6847C36.6568 65.2642 36.3274 65.4838 35.786 65.4808C34.8908 65.4762 33.9972 65.4869 33.102 65.4777C32.4157 65.4716 32.1747 65.2367 32.1656 64.5474C32.1519 63.6522 32.1534 62.7586 32.1656 61.8633C32.1747 61.2091 32.4157 60.959 33.0715 60.9697C34.1726 60.988 35.2782 60.8797 36.3762 61.0383C36.6614 61.0795 36.8612 60.9361 36.9314 60.6601C36.9969 60.4039 36.8719 60.2224 36.6446 60.0989C36.4708 60.0043 36.2817 59.9845 36.0911 59.983C34.9686 59.9799 33.8447 59.9616 32.7222 59.9891C31.8652 60.0104 31.2063 60.6708 31.1865 61.5248C31.1606 62.6472 31.1575 63.7712 31.1865 64.8936C31.2109 65.8102 31.8819 66.4354 32.8137 66.4614C33.346 66.4766 33.8797 66.4644 34.412 66.4629ZM50.4768 50.697C52.9718 50.697 55.4668 50.7 57.9617 50.6939C58.3155 50.6939 58.7715 50.7473 58.773 50.2212C58.7746 49.6752 58.3186 49.7087 57.9327 49.7042C57.8946 49.7042 57.8565 49.7042 57.8184 49.7042C52.9428 49.7042 48.0657 49.7042 43.1901 49.7042C43.0193 49.7042 42.844 49.695 42.6777 49.724C42.391 49.7728 42.2568 49.9634 42.2675 50.2517C42.2782 50.5307 42.4444 50.6619 42.7052 50.6817C42.8943 50.6954 43.0849 50.697 43.2755 50.6985C45.676 50.6985 48.0749 50.6985 50.4753 50.6985L50.4768 50.697ZM50.5287 62.1058C52.9657 62.1058 55.4027 62.1104 57.8397 62.1013C58.2362 62.1013 58.7944 62.2187 58.773 61.5797C58.7532 60.9834 58.2118 61.1237 57.8397 61.1237C52.9657 61.1161 48.0916 61.1191 43.2176 61.1191C43.027 61.1191 42.8348 61.1191 42.6488 61.1481C42.4124 61.1847 42.2843 61.3448 42.2736 61.5827C42.2614 61.8466 42.391 62.0281 42.6488 62.0769C42.8333 62.1119 43.0285 62.1028 43.2176 62.1028C45.6546 62.1028 48.0916 62.1028 50.5287 62.1028V62.1058ZM47.6783 53.9758C49.2583 53.9758 50.8398 53.9758 52.4197 53.9758C52.8147 53.9758 53.2676 53.9606 53.2722 53.4512C53.2768 52.9418 52.8223 52.9235 52.4289 52.9174C52.3907 52.9174 52.3526 52.9174 52.3145 52.9174C49.2857 52.9174 46.2585 52.9174 43.2298 52.919C43.0407 52.919 42.847 52.9281 42.664 52.9662C42.4169 53.0181 42.2614 53.1706 42.2644 53.4466C42.266 53.7455 42.4383 53.9041 42.7082 53.9529C42.8745 53.9834 43.0498 53.9758 43.2206 53.9758C44.706 53.9758 46.1914 53.9758 47.6768 53.9758H47.6783ZM47.7485 65.3206C49.3864 65.3191 51.0258 65.3206 52.6637 65.3176C53.0008 65.3176 53.2981 65.2276 53.2844 64.8219C53.2722 64.4697 53.013 64.3476 52.6912 64.34C52.5585 64.337 52.4243 64.3354 52.2916 64.3354C49.2613 64.3354 46.2326 64.3354 43.2023 64.3354C43.0117 64.3354 42.815 64.3217 42.6335 64.3644C42.2843 64.4468 42.1516 64.8631 42.3712 65.133C42.5389 65.3389 42.7769 65.3191 43.0041 65.3191C44.5856 65.3222 46.167 65.3191 47.7485 65.3191V65.3206ZM39.2479 61.1039C39.2098 60.718 38.9856 60.564 38.6226 60.6692C38.4473 60.7196 38.2886 60.8492 38.1361 60.9605C37.183 61.659 36.2207 62.3453 35.2919 63.0742C34.9198 63.367 34.7139 63.3121 34.4898 62.9339C34.3068 62.6228 34.081 62.3376 33.8782 62.0372C33.6723 61.7337 33.3933 61.5492 33.0608 61.7764C32.7405 61.9945 32.8534 62.3193 33.0333 62.5877C33.4146 63.1581 33.8096 63.7178 34.2 64.2821C34.4532 64.6466 34.7582 64.7152 35.1242 64.4452C36.3961 63.5043 37.6664 62.5649 38.9383 61.6239C39.1122 61.4943 39.2586 61.3494 39.2448 61.1039H39.2479ZM39.2418 49.6676C39.2082 49.3549 38.9978 49.1765 38.6287 49.2833C38.4366 49.3397 38.2627 49.4815 38.095 49.6035C37.1449 50.3005 36.1917 50.9944 35.2538 51.7096C34.9381 51.9506 34.7353 51.9384 34.5264 51.5891C34.3312 51.2643 34.0932 50.9639 33.8767 50.6527C33.6769 50.3645 33.4283 50.1236 33.0791 50.3737C32.7405 50.6161 32.861 50.9471 33.0532 51.2338C33.4238 51.7859 33.8111 52.3272 34.1848 52.8778C34.4394 53.2514 34.7673 53.3078 35.115 53.0547C36.4067 52.1168 37.6878 51.1621 38.9703 50.212C39.1274 50.0961 39.2479 49.9497 39.2418 49.6676Z" fill="#8E3C44"/>
<path d="M64.8183 47.5373C64.8183 54.1514 64.8214 60.7655 64.8168 67.3781C64.8153 70.0287 63.063 72.1409 60.4689 72.6334C60.1715 72.6899 59.8619 72.696 59.5585 72.696C49.8378 72.699 40.1172 72.7036 30.3965 72.696C27.4761 72.6929 25.1687 70.3855 25.1672 67.4666C25.1626 54.1804 25.1611 40.8957 25.1672 27.6111C25.1672 24.7333 27.438 22.4412 30.3005 22.4091C32.2449 22.3878 34.1893 22.4152 36.1322 22.3924C36.6294 22.3863 36.8338 22.5418 36.785 23.0466C36.7545 23.3684 36.7545 23.6963 36.785 24.0181C36.8368 24.5625 36.6248 24.7562 36.0728 24.7501C34.1482 24.7272 32.222 24.7364 30.2974 24.7501C29.2101 24.7577 28.4201 25.2976 27.868 26.2096C27.6377 26.5908 27.5066 27.0056 27.5081 27.457C27.5081 27.6477 27.502 27.8383 27.502 28.0289C27.502 41.0467 27.502 54.0645 27.502 67.0823C27.502 67.462 27.4807 67.8448 27.5828 68.2184C27.9245 69.4629 29.0103 70.3154 30.3066 70.355C30.4393 70.3596 30.5735 70.3596 30.7061 70.3596C40.2361 70.3596 49.7661 70.3535 59.2962 70.3687C60.4811 70.3703 61.416 69.9875 62.0595 68.9764C62.3203 68.5677 62.4728 68.1208 62.4713 67.6282C62.4713 67.4757 62.4774 67.3232 62.4774 67.1707C62.4774 54.095 62.4774 41.0208 62.4774 27.9451C62.4774 27.5836 62.4926 27.2222 62.3905 26.8668C62.0367 25.6224 60.9646 24.7669 59.6545 24.7516C57.7482 24.7287 55.8419 24.7455 53.9371 24.7409C53.231 24.7394 53.2051 24.7074 53.2005 23.9937C53.1924 22.9332 53.7221 22.403 54.7896 22.403C56.333 22.403 57.8794 22.4579 59.4212 22.3924C62.302 22.2688 64.8656 24.747 64.8366 27.8124C64.7756 34.3868 64.8183 40.9628 64.8183 47.5388V47.5373Z" fill="#8E3C44"/>
<path d="M44.9958 26.603C43.2451 26.603 41.4928 26.6076 39.7421 26.603C38.5602 26.6 37.8068 25.8756 37.7717 24.7028C37.7549 24.1126 37.7534 23.5224 37.7717 22.9322C37.8098 21.7915 38.5663 21.0595 39.7039 21.0442C40.1416 21.0381 40.5808 21.0244 41.017 21.0473C41.4211 21.0686 41.5736 20.9009 41.6514 20.5044C42.0723 18.3388 44.244 17.1401 46.2708 17.9591C47.413 18.4212 48.113 19.292 48.3265 20.5059C48.3982 20.9131 48.5553 21.0656 48.9549 21.0473C49.4108 21.0259 49.8684 21.0366 50.3259 21.0458C51.3736 21.0656 52.1392 21.7641 52.2017 22.8102C52.2413 23.4736 52.2383 24.1431 52.2047 24.808C52.1498 25.8878 51.3904 26.5984 50.3076 26.603C48.537 26.6106 46.7664 26.6045 44.9958 26.6045V26.603ZM45.8575 20.8429C45.8621 20.3915 45.432 19.9675 44.976 19.9767C44.5414 19.9858 44.1372 20.3869 44.1266 20.8185C44.1159 21.2608 44.5597 21.7 45.008 21.6893C45.4366 21.6802 45.8529 21.2654 45.8575 20.8429Z" fill="#8E3C44"/>
<path d="M44.9851 45.2482C40.9971 45.2482 37.8555 42.0884 37.8601 38.0851C37.8647 34.1368 41.0337 30.986 44.9958 30.9875C48.9792 30.9875 52.1254 34.1535 52.1208 38.1553C52.1162 42.1067 48.9548 45.2498 44.9836 45.2498L44.9851 45.2482ZM39.9708 37.6611C39.9555 37.896 40.0623 38.1339 40.2194 38.3596C40.808 39.203 41.386 40.0555 41.9838 40.8927C42.4032 41.4814 42.9873 41.6247 43.576 41.2008C45.4792 39.8328 47.3627 38.4389 49.2385 37.0328C49.7128 36.6775 49.7844 36.0675 49.4947 35.5947C49.1424 35.0213 48.4546 34.9359 47.8065 35.4102C46.4065 36.4335 45.0095 37.4614 43.6278 38.5075C43.2862 38.7653 43.088 38.7455 42.8592 38.3794C42.5466 37.8792 42.2004 37.3988 41.8451 36.9276C41.5431 36.528 41.11 36.4487 40.6616 36.6028C40.2026 36.7614 39.9708 37.1198 39.9723 37.6611H39.9708Z" fill="#8E3C44"/>
</svg>
