<svg width="24" height="24" viewBox="0 0 24 24" fill="none" xmlns="http://www.w3.org/2000/svg">
<path d="M11.5647 -0.000671387H12.4076C12.9871 0.159888 13.4169 0.535743 13.8205 0.958307C14.2029 1.35898 14.5963 1.74943 14.9955 2.13331C15.5064 2.62375 16.1209 2.88137 16.831 2.88794C17.5178 2.89451 18.2045 2.89013 18.8913 2.8894C19.111 2.8894 19.3284 2.91129 19.5394 2.96603C20.4764 3.20979 21.0669 3.98777 21.0807 5.00587C21.0902 5.70795 21.0807 6.41003 21.0837 7.11284C21.0873 7.84996 21.3522 8.48271 21.8675 9.00745C22.3375 9.48621 22.8162 9.95694 23.2892 10.4328C23.449 10.5933 23.6001 10.7619 23.7132 10.9604C24.1978 11.8129 24.0649 12.7441 23.3402 13.4892C22.8564 13.987 22.3565 14.4701 21.8697 14.9649C21.3544 15.4889 21.088 16.1217 21.0844 16.8588C21.0807 17.5375 21.0829 18.2163 21.0837 18.895C21.0837 19.1147 21.0618 19.3322 21.0063 19.5431C20.7603 20.4802 19.9846 21.0684 18.965 21.0815C18.2629 21.0903 17.5608 21.0808 16.858 21.0844C16.1209 21.0888 15.4889 21.3545 14.9641 21.8697C14.4854 22.3397 14.0147 22.8178 13.5388 23.2914C13.3841 23.4454 13.2213 23.5921 13.0316 23.7037C12.1821 24.2015 11.2333 24.0694 10.4838 23.3388C9.98096 22.8484 9.49345 22.3426 8.9906 21.8529C8.47681 21.3523 7.85501 21.0932 7.13687 21.0859C6.45814 21.0786 5.77941 21.0837 5.10068 21.0844C4.87371 21.0844 4.6482 21.0633 4.42925 21.0056C3.49582 20.7611 2.90686 19.9817 2.89372 18.9621C2.88496 18.2834 2.88861 17.6047 2.89226 16.9259C2.89664 16.1356 2.61493 15.467 2.05443 14.9117C1.68879 14.5489 1.33264 14.176 0.959708 13.8213C0.536415 13.4185 0.15983 12.9886 0 12.4084V11.5655C0.15983 10.986 0.536415 10.5576 0.958978 10.1547C1.35892 9.77302 1.74937 9.37965 2.13252 8.98044C2.62223 8.4703 2.88058 7.85653 2.88861 7.14715C2.89664 6.46112 2.89153 5.77509 2.89007 5.08906C2.89007 4.87012 2.91051 4.65191 2.96451 4.44099C3.20535 3.49734 3.99136 2.90327 5.01967 2.89159C5.68965 2.88429 6.36035 2.88502 7.03105 2.89159C7.83019 2.89889 8.50527 2.61791 9.06577 2.05157C9.42776 1.68593 9.8007 1.33051 10.1547 0.957577C10.5568 0.534284 10.9874 0.159888 11.5661 -0.000671387L11.5647 -0.000671387ZM10.4043 16.3932C10.4677 16.3852 10.5123 16.3275 10.5604 16.2793C12.9666 13.8739 15.3721 11.4677 17.7805 9.06437C17.9017 8.94322 17.909 8.86148 17.782 8.7396C17.4499 8.42067 17.1288 8.0908 16.8033 7.7653C16.6471 7.60912 16.4907 7.60912 16.334 7.7653C14.4299 9.66866 12.5258 11.572 10.621 13.4746C10.3991 13.6958 10.3977 13.6965 10.1824 13.4805C9.32121 12.62 8.45784 11.7618 7.60249 10.8955C7.45288 10.7444 7.35435 10.7349 7.20474 10.894C6.87851 11.2407 6.53769 11.5735 6.19687 11.9048C6.08083 12.0172 6.05163 12.0989 6.183 12.2296C7.53827 13.5776 8.88843 14.9314 10.2408 16.283C10.2838 16.326 10.3225 16.3793 10.4043 16.3925V16.3932Z" fill="#F37C23"/>
</svg>
