<svg width="140" height="56" viewBox="0 0 140 56" fill="none" xmlns="http://www.w3.org/2000/svg">
<circle cx="2" cy="2" r="2" fill="#11112A"/>
<circle cx="19" cy="2" r="2" fill="#11112A"/>
<circle cx="36" cy="2" r="2" fill="#11112A"/>
<circle cx="53" cy="2" r="2" fill="#11112A"/>
<circle cx="70" cy="2" r="2" fill="#11112A"/>
<circle cx="87" cy="2" r="2" fill="#11112A"/>
<circle cx="104" cy="2" r="2" fill="#11112A"/>
<circle cx="121" cy="2" r="2" fill="#11112A"/>
<circle cx="138" cy="2" r="2" fill="#11112A"/>
<circle cx="2" cy="15" r="2" fill="#11112A"/>
<circle cx="19" cy="15" r="2" fill="#11112A"/>
<circle cx="36" cy="15" r="2" fill="#11112A"/>
<circle cx="53" cy="15" r="2" fill="#11112A"/>
<circle cx="70" cy="15" r="2" fill="#11112A"/>
<circle cx="87" cy="15" r="2" fill="#11112A"/>
<circle cx="104" cy="15" r="2" fill="#11112A"/>
<circle cx="121" cy="15" r="2" fill="#11112A"/>
<circle cx="138" cy="15" r="2" fill="#11112A"/>
<circle cx="2" cy="28" r="2" fill="#11112A"/>
<circle cx="19" cy="28" r="2" fill="#11112A"/>
<circle cx="36" cy="28" r="2" fill="#11112A"/>
<circle cx="53" cy="28" r="2" fill="#11112A"/>
<circle cx="70" cy="28" r="2" fill="#11112A"/>
<circle cx="87" cy="28" r="2" fill="#11112A"/>
<circle cx="104" cy="28" r="2" fill="#11112A"/>
<circle cx="121" cy="28" r="2" fill="#11112A"/>
<circle cx="138" cy="28" r="2" fill="#11112A"/>
<circle cx="2" cy="41" r="2" fill="#11112A"/>
<circle cx="19" cy="41" r="2" fill="#11112A"/>
<circle cx="36" cy="41" r="2" fill="#11112A"/>
<circle cx="53" cy="41" r="2" fill="#11112A"/>
<circle cx="70" cy="41" r="2" fill="#11112A"/>
<circle cx="87" cy="41" r="2" fill="#11112A"/>
<circle cx="104" cy="41" r="2" fill="#11112A"/>
<circle cx="121" cy="41" r="2" fill="#11112A"/>
<circle cx="138" cy="41" r="2" fill="#11112A"/>
<circle cx="2" cy="54" r="2" fill="#11112A"/>
<circle cx="19" cy="54" r="2" fill="#11112A"/>
<circle cx="36" cy="54" r="2" fill="#11112A"/>
<circle cx="53" cy="54" r="2" fill="#11112A"/>
<circle cx="70" cy="54" r="2" fill="#11112A"/>
<circle cx="87" cy="54" r="2" fill="#11112A"/>
<circle cx="104" cy="54" r="2" fill="#11112A"/>
<circle cx="121" cy="54" r="2" fill="#11112A"/>
<circle cx="138" cy="54" r="2" fill="#11112A"/>
</svg>
