<svg width="88" height="88" viewBox="0 0 88 88" fill="none" xmlns="http://www.w3.org/2000/svg">
<rect x="0.5" y="0.5" width="87" height="87" rx="43.5" stroke="white"/>
<path d="M43.4395 19.0013H45.1973C47.7858 19.8437 48.8235 21.2304 48.8365 23.9139C48.8378 24.2954 49.0253 24.4608 49.3091 24.6249C52.4393 26.4269 55.5694 28.2302 58.6917 30.0453C58.9847 30.2159 59.1943 30.2289 59.4795 30.0218C60.4781 29.2979 61.6187 29.0687 62.8179 29.2641C64.8126 29.5883 66.3074 31.1572 66.5938 33.1585C66.8634 35.0439 65.8517 36.9514 64.0783 37.8263C63.7189 38.0034 63.5822 38.2052 63.5835 38.6063C63.5978 42.2025 63.5978 45.7988 63.5835 49.395C63.5822 49.7948 63.7176 49.9979 64.077 50.1763C66.1316 51.1971 67.1016 53.5043 66.4077 55.6501C65.478 58.5302 62.0849 59.6956 59.5172 58.012C59.2776 57.8545 59.0888 57.723 58.775 57.9065C55.598 59.7568 52.4132 61.5952 49.2245 63.4259C48.9276 63.5965 48.8222 63.8061 48.8404 64.1368C48.873 64.6902 48.8547 65.241 48.6842 65.7787C48.1347 67.5183 46.9225 68.5365 45.1973 69H43.4395C40.7924 68.0977 39.8589 66.8399 39.8016 64.0379C39.7938 63.6421 39.5555 63.5093 39.286 63.353C36.1702 61.5575 33.0544 59.7633 29.9451 57.956C29.6508 57.7854 29.4425 57.775 29.1573 57.9795C28.1248 58.719 26.9569 58.9521 25.7238 58.7151C23.746 58.3362 22.3203 56.8089 22.0429 54.8415C21.7734 52.934 22.7903 51.0473 24.6028 50.1515C24.927 49.9914 25.0533 49.8039 25.052 49.4432C25.0416 45.8144 25.0416 42.1856 25.052 38.5555C25.052 38.1948 24.9257 38.0086 24.6015 37.8472C22.1692 36.6376 21.2995 33.7939 22.6289 31.4606C23.9192 29.195 26.8866 28.5154 29.1157 29.9958C29.436 30.2093 29.6586 30.2133 29.988 30.0218C33.0804 28.2198 36.1806 26.4295 39.2899 24.6548C39.6636 24.4413 39.8315 24.2043 39.7964 23.7668C39.7026 22.5767 40.062 21.5195 40.8146 20.595C41.5008 19.7526 42.4122 19.2812 43.4395 19V19.0013ZM57.5173 33.4671C57.624 33.0257 57.4665 32.8408 57.1944 32.6845C54.0069 30.8526 50.8234 29.0154 47.6438 27.1704C47.3795 27.0167 47.192 27.0415 46.9394 27.2068C45.1908 28.3461 43.4291 28.3422 41.6857 27.1964C41.4239 27.0245 41.2351 27.0336 40.9799 27.1821C37.8003 29.0258 34.6168 30.8643 31.4281 32.695C31.1469 32.8564 31.0557 33.0543 31.0805 33.3694C31.2341 35.2639 30.2979 36.9488 28.5988 37.8094C28.2732 37.9748 28.0988 38.1544 28.1001 38.5451C28.1118 42.1895 28.1092 45.8339 28.1027 49.4784C28.1027 49.813 28.2264 49.9992 28.5284 50.1593C30.3266 51.1124 31.2172 52.5994 31.0779 54.654C31.0557 54.9756 31.169 55.1605 31.4437 55.3181C34.6168 57.1409 37.7873 58.9703 40.9513 60.8101C41.2508 60.9846 41.4578 60.9612 41.7403 60.7697C43.3562 59.6721 45.2949 59.6773 46.9134 60.7789C47.1764 60.9585 47.373 60.9911 47.6595 60.8257C50.8378 58.9794 54.0226 57.1422 57.21 55.3116C57.4912 55.1501 57.5811 54.9509 57.5537 54.6358C57.3949 52.7491 58.3363 51.0526 60.0367 50.1971C60.3909 50.0187 60.5367 49.8104 60.5354 49.412C60.5237 45.8001 60.525 42.1882 60.5354 38.5763C60.5354 38.2013 60.4013 37.9995 60.0654 37.8224C58.2725 36.8784 57.4665 35.3616 57.516 33.4684L57.5173 33.4671Z" fill="white"/>
<path d="M42.8914 50.3964C42.8914 52.1528 42.894 53.9093 42.8901 55.6644C42.8901 56.1736 42.8458 56.2009 42.4148 55.9535C39.4657 54.2647 36.5217 52.5682 33.57 50.8859C33.264 50.7115 33.1442 50.5005 33.1455 50.1477C33.1559 46.6517 33.1507 43.1557 33.1533 39.6597C33.1533 39.0698 33.2106 39.0347 33.7132 39.3224C36.6194 40.9865 39.5217 42.6596 42.4317 44.3158C42.769 44.5085 42.9057 44.7324 42.9018 45.127C42.8822 46.8834 42.8927 48.6399 42.8927 50.3951L42.8914 50.3964Z" fill="white"/>
<path d="M55.4861 44.929C55.4861 46.6685 55.4783 48.408 55.4926 50.1489C55.4952 50.5004 55.378 50.714 55.0694 50.8884C52.1177 52.5707 49.1737 54.2673 46.2259 55.956C45.7897 56.206 45.7467 56.1787 45.7467 55.6696C45.7441 52.1254 45.7493 48.5799 45.7402 45.0357C45.7402 44.7193 45.8496 44.5266 46.1204 44.3717C49.0709 42.6868 52.0161 40.9916 54.9653 39.3041C55.4158 39.0463 55.4835 39.088 55.4848 39.6114C55.4887 41.3835 55.4861 43.1556 55.4861 44.929Z" fill="white"/>
<path d="M44.2559 42.0997C44.1699 42.0567 44.0358 41.9995 43.9108 41.9278C40.963 40.2378 38.0151 38.5464 35.0686 36.8538C34.609 36.5894 34.609 36.5256 35.0647 36.2639C38.0112 34.5713 40.9617 32.8851 43.9043 31.1833C44.2129 31.0049 44.4525 31.0167 44.7545 31.1911C47.6829 32.8838 50.619 34.5621 53.5512 36.247C54.0382 36.5269 54.0382 36.5881 53.5564 36.8655C50.6242 38.5503 47.6907 40.2326 44.7558 41.9148C44.6165 41.9955 44.4824 42.0958 44.2559 42.0997Z" fill="white"/>
</svg>
