<svg width="88" height="88" viewBox="0 0 88 88" fill="none" xmlns="http://www.w3.org/2000/svg">
<rect x="0.5" y="0.5" width="87" height="87" rx="43.5" stroke="white"/>
<path d="M28.5524 57.1211C27.0828 57.1211 25.6144 57.1237 24.1448 57.1211C23.3504 57.1185 23.0311 56.8214 23.0128 56.0427C22.9957 55.3413 22.9957 54.6385 23.0128 53.9371C23.0311 53.2121 23.3491 52.9189 24.0715 52.8692C24.5033 52.8391 25.0438 53.0694 25.3383 52.7435C25.6039 52.4491 25.4037 51.9282 25.4312 51.5081C25.4665 50.9664 25.7374 50.6654 26.2792 50.6196C26.5711 50.5947 26.8668 50.6104 27.16 50.6078C28.169 50.5999 28.0944 50.7151 28.0944 49.6982C28.0944 44.0173 28.0944 38.3363 28.0944 32.6566C28.0944 32.1916 27.861 31.9586 27.3942 31.9578C27.0356 31.9578 26.6758 31.9656 26.3172 31.9538C25.7453 31.9368 25.4574 31.6476 25.4338 31.0678C25.422 30.7747 25.409 30.4789 25.4338 30.1871C25.4705 29.7866 25.2925 29.6636 24.9195 29.6924C24.6277 29.7147 24.3319 29.7003 24.0388 29.695C23.4695 29.6872 23.1345 29.4582 23.0612 29.0067C22.9787 28.4989 23.2653 28.2215 23.692 28.0304C25.1367 27.3839 26.5789 26.7296 28.0211 26.0805C33.1263 23.7824 38.2327 21.4909 43.33 19.1785C43.8522 18.9416 44.2985 18.9403 44.8193 19.1759C51.2423 22.0798 57.6719 24.9694 64.1001 27.8629C64.2938 27.9493 64.4901 28.0343 64.6707 28.1429C65.0136 28.3484 65.1746 28.6546 65.0725 29.0538C64.973 29.4451 64.706 29.6676 64.3004 29.6872C63.9261 29.7055 63.5492 29.7094 63.1749 29.6911C62.8425 29.6754 62.692 29.7906 62.7129 30.1387C62.7326 30.4632 62.7273 30.7917 62.7129 31.1176C62.6894 31.6397 62.4015 31.9303 61.8806 31.9486C61.4082 31.9656 60.9331 31.963 60.4607 31.9525C60.1688 31.946 60.0354 32.0651 60.0524 32.3569C60.0589 32.4708 60.0524 32.5859 60.0524 32.6998C60.0524 38.4135 60.0524 44.1272 60.0524 49.8396C60.0524 50.3491 60.3141 50.6043 60.8376 50.6052C61.1477 50.6052 61.4579 50.5973 61.7681 50.6078C62.3962 50.6287 62.6828 50.9297 62.7208 51.5461C62.747 51.9623 62.5297 52.4857 62.8346 52.7684C63.1317 53.0432 63.6486 52.8443 64.0674 52.8679C64.7937 52.9084 65.1144 53.2042 65.1327 53.9266C65.151 54.628 65.1497 55.3308 65.1327 56.0323C65.1144 56.8149 64.7977 57.1159 64.0072 57.1172C61.0365 57.1198 58.0658 57.1302 55.0938 57.108C54.5899 57.1041 54.4355 57.2598 54.4643 57.7493C54.5023 58.384 54.4905 59.0226 54.4669 59.6586C54.4538 60.0107 54.5651 60.2292 54.8831 60.4006C55.8607 60.9267 56.8278 61.4698 57.7857 62.0313C58.1116 62.2223 58.338 62.1988 58.6586 61.9841C59.6781 61.301 60.7525 61.2879 61.7877 61.9449C62.8294 62.6045 63.256 63.6069 63.0767 64.8057C62.8988 65.9913 62.1803 66.787 61.026 67.1273C59.2122 67.6612 57.3604 66.2792 57.3853 64.3843C57.3918 63.8543 57.206 63.5951 56.7728 63.3635C55.65 62.7641 54.5546 62.1137 53.4357 61.5078C52.9619 61.2513 52.7578 60.8927 52.7683 60.3614C52.7853 59.4309 52.7748 58.5004 52.7696 57.57C52.7696 57.4155 52.8167 57.2219 52.6138 57.1473C52.4424 57.0844 52.2984 57.1708 52.1663 57.2794C51.4714 57.8513 50.7319 58.3578 49.9389 58.7844C49.8577 58.8276 49.74 58.9127 49.7387 58.9807C49.7256 59.6207 49.5083 60.2933 49.8944 60.8862C50.3668 61.6099 50.8864 62.3035 51.3758 63.0167C51.5433 63.2614 51.7252 63.3347 52.0341 63.2824C53.6529 63.0102 55.1749 64.1265 55.3686 65.7008C55.5715 67.3484 54.4342 68.8286 52.8559 68.9686C51.1638 69.1178 49.7517 67.9321 49.6457 66.2596C49.6104 65.71 49.7269 65.176 50.0253 64.7154C50.2216 64.4118 50.1758 64.1932 49.9795 63.9249C49.5345 63.3203 49.1445 62.6725 48.6734 62.0915C48.1931 61.4986 47.9497 60.8665 48.0557 60.1088C48.1133 59.6953 47.9759 59.605 47.5676 59.7319C46.836 59.9596 46.0848 60.1245 45.314 60.1598C45.0025 60.1742 44.8861 60.3182 44.89 60.6231C44.8992 61.407 44.9096 62.1909 44.8861 62.9735C44.8743 63.3452 45.1256 63.425 45.3729 63.5533C46.467 64.1186 47.0611 65.2362 46.9328 66.4716C46.819 67.5722 45.9945 68.5433 44.8952 68.8717C43.4675 69.2984 41.9821 68.5799 41.4037 67.1809C40.8553 65.8552 41.3958 64.2717 42.6901 63.6148C43.1455 63.3831 43.2908 63.1188 43.2633 62.6359C43.224 61.9684 43.2463 61.2984 43.2568 60.6283C43.262 60.326 43.1508 60.1769 42.8367 60.1611C42.0331 60.1206 41.2558 59.9374 40.4889 59.7057C40.1905 59.6154 40.0374 59.6717 40.0911 60.0028C40.235 60.8979 39.8777 61.6086 39.3346 62.2851C38.8962 62.8309 38.5298 63.4342 38.1149 64.0008C37.9474 64.2311 37.9501 64.4144 38.0914 64.6656C38.7274 65.8016 38.6109 67.0501 37.8087 67.9988C37.0759 68.8652 35.7685 69.2251 34.6875 68.856C33.5581 68.47 32.7742 67.4086 32.714 66.185C32.6303 64.4523 34.2949 62.9879 36.0577 63.2797C36.4346 63.3426 36.6309 63.2339 36.8246 62.9447C37.2421 62.3218 37.6556 61.691 38.1228 61.1047C38.6384 60.4582 38.4015 59.7332 38.4264 59.0344C38.4316 58.8904 38.2864 58.825 38.1699 58.7635C37.4017 58.3578 36.6911 57.867 36.0211 57.3161C35.8797 57.1996 35.7292 57.0805 35.5355 57.1499C35.3065 57.2323 35.3759 57.4483 35.3746 57.6158C35.368 58.5292 35.3562 59.444 35.3759 60.3575C35.3877 60.9123 35.1573 61.2696 34.6718 61.5326C33.5228 62.153 32.3986 62.8165 31.2496 63.4355C30.8871 63.6305 30.7549 63.8621 30.7654 64.2809C30.8033 65.7558 29.7564 67.02 28.3954 67.2045C26.8158 67.4191 25.4783 66.5305 25.1027 65.0164C24.8253 63.9001 25.2925 62.6882 26.2635 62.0051C27.2097 61.3403 28.4896 61.2932 29.4358 61.958C29.8048 62.2184 30.0718 62.2066 30.4369 61.9894C31.3635 61.441 32.3057 60.9176 33.2532 60.4072C33.5699 60.2371 33.6864 60.0211 33.6746 59.6665C33.651 59.0147 33.6393 58.3591 33.6772 57.7087C33.706 57.2192 33.511 57.1041 33.0556 57.1119C31.5545 57.1355 30.0522 57.1211 28.5498 57.1211H28.5524ZM44.0564 58.5436C49.6929 58.6064 55.0205 54.1046 54.9786 47.5729C54.938 41.1604 49.7256 36.7174 44.0629 36.7371C38.3086 36.7567 33.1446 41.2468 33.1668 47.692C33.1891 54.2354 38.5429 58.5934 44.0564 58.5449V58.5436ZM44.0197 30.3167C49.4364 30.3167 54.8543 30.3167 60.2709 30.3167C60.4345 30.3167 60.5968 30.3167 60.7604 30.3075C60.9449 30.2983 61.0116 30.1779 61.0116 30.0104C61.0116 29.8455 60.9541 29.7199 60.7682 29.7055C60.6387 29.6963 60.5078 29.695 60.3769 29.695C49.5096 29.695 38.6423 29.695 27.7764 29.695C27.6455 29.695 27.5146 29.695 27.3851 29.7042C27.2005 29.7147 27.1338 29.8338 27.1338 30.0013C27.1338 30.1662 27.1914 30.2931 27.3772 30.3049C27.5395 30.3154 27.7031 30.3154 27.8667 30.3154C33.2506 30.3154 38.6358 30.3154 44.0197 30.3154V30.3167ZM34.2871 39.7169C34.9767 38.9396 35.6612 38.2172 36.4673 37.6243C36.644 37.4948 36.7094 37.3351 36.7094 37.1231C36.7068 35.5396 36.7029 33.9561 36.712 32.3739C36.7133 32.0494 36.5759 31.9447 36.2684 31.9538C35.7632 31.9682 35.2555 31.9826 34.7516 31.9499C34.3132 31.9211 34.1954 32.0886 34.1981 32.5113C34.2151 34.7806 34.2059 37.0485 34.2085 39.3178C34.2085 39.4408 34.1614 39.5769 34.2857 39.7182L34.2871 39.7169ZM53.8584 39.7065C53.895 39.679 53.9173 39.6698 53.9173 39.6607C53.9251 37.2029 53.9304 34.7439 53.9395 32.2862C53.9395 32.0232 53.7943 31.9551 53.5652 31.9564C52.9947 31.9604 52.4254 31.9682 51.8561 31.9538C51.5276 31.9447 51.436 32.0952 51.4373 32.3962C51.4452 33.96 51.4413 35.5226 51.4413 37.0865C51.4413 37.2684 51.4452 37.4464 51.614 37.5694C52.4555 38.1845 53.1661 38.9409 53.8597 39.7065H53.8584ZM45.3245 33.5386C45.3245 33.1473 45.3153 32.756 45.3271 32.3648C45.3349 32.0768 45.225 31.9473 44.9266 31.9538C44.356 31.9656 43.7855 31.9656 43.2149 31.9538C42.9113 31.9473 42.817 32.0873 42.8197 32.37C42.8288 33.1526 42.8275 33.9352 42.8197 34.7178C42.817 35.0044 42.9047 35.1431 43.2227 35.0934C43.7894 35.0044 44.36 35.0083 44.9279 35.0934C45.2015 35.1339 45.3284 35.0449 45.3245 34.7609C45.3179 34.3539 45.3232 33.9456 45.3245 33.5373V33.5386ZM29.8598 52.8692C30.6424 52.8692 31.4237 52.8718 32.2062 52.8666C32.3253 52.8666 32.5007 52.9071 32.5151 52.72C32.5269 52.5708 32.4497 52.4242 32.3044 52.3614C32.2036 52.3182 32.0832 52.313 31.9707 52.313C30.5207 52.3104 29.0706 52.3091 27.6193 52.313C27.4191 52.313 27.1508 52.2593 27.1469 52.5839C27.143 52.9058 27.406 52.8653 27.6102 52.8679C28.36 52.8731 29.1099 52.8705 29.8585 52.8692H29.8598ZM58.2399 52.8705C59.0054 52.8705 59.771 52.8731 60.5379 52.8679C60.7434 52.8666 61.0051 52.9045 60.9999 52.5826C60.9933 52.2593 60.7263 52.3143 60.5261 52.3143C59.4674 52.3091 58.4074 52.3117 57.3486 52.3117C56.9416 52.3117 56.5333 52.3195 56.1263 52.3117C55.8581 52.3051 55.6447 52.4111 55.6421 52.6768C55.6382 52.9935 55.9313 52.8626 56.091 52.8666C56.8082 52.8836 57.5253 52.8744 58.2412 52.8731L58.2399 52.8705Z" fill="white"/>
<path d="M44.0288 57.0295C38.836 57.0203 34.6416 52.7985 34.6521 47.5913C34.6613 42.4141 38.925 38.2394 44.1859 38.2538C49.2649 38.2682 53.4945 42.528 53.4919 47.6279C53.4893 52.8469 49.2701 57.0399 44.0288 57.0308V57.0295ZM46.658 44.7554C46.6436 44.5368 46.5533 44.3484 46.4159 44.1808C46.1306 43.8314 45.7798 43.5592 45.3532 43.4257C45.0064 43.3171 44.8088 43.1797 44.7931 42.7662C44.7774 42.3565 44.5104 42.0516 44.0655 42.0568C43.6218 42.0621 43.3627 42.3696 43.3483 42.7806C43.3339 43.1732 43.1743 43.3381 42.8301 43.4859C41.6876 43.9793 41.1301 45.1257 41.3722 46.3886C41.5829 47.4879 42.6141 48.3228 43.805 48.3582C44.0982 48.3673 44.3939 48.3477 44.674 48.4642C45.1059 48.6434 45.3938 49.0923 45.3676 49.5477C45.3414 50.0071 45.0025 50.4677 44.5497 50.5293C43.9032 50.6169 43.2515 50.6837 42.7463 50.0843C42.4833 49.7715 42.0043 49.7755 41.7321 50.0163C41.4298 50.2832 41.3958 50.6523 41.6614 51.0279C41.9533 51.4401 42.3511 51.7293 42.8288 51.8785C43.1625 51.9832 43.3365 52.1285 43.347 52.5171C43.3588 52.9281 43.6074 53.2278 44.0589 53.2395C44.517 53.2513 44.7813 52.949 44.7905 52.5433C44.8009 52.0931 45.0352 51.9505 45.3885 51.7869C46.4826 51.2778 47.027 50.0882 46.764 48.8816C46.5284 47.8007 45.5037 46.9723 44.3586 46.933C44.1309 46.9251 43.898 46.9356 43.6768 46.8885C43.101 46.7655 42.7332 46.2656 42.783 45.7146C42.8327 45.1689 43.2868 44.758 43.8744 44.7226C44.4594 44.6886 45.0103 44.7174 45.4252 45.2369C45.632 45.4961 45.9526 45.4843 46.2405 45.377C46.5114 45.2762 46.62 45.0354 46.6593 44.7593L46.658 44.7554Z" fill="white"/>
</svg>
