<svg width="88" height="88" viewBox="0 0 88 88" fill="none" xmlns="http://www.w3.org/2000/svg">
<rect x="0.5" y="0.5" width="87" height="87" rx="43.5" stroke="white"/>
<path d="M19 27.9011C19.5378 26.5274 20.5495 25.9961 22.013 26C32.9609 26.0261 43.9102 26.013 54.8581 26.0156C56.2305 26.0156 57.2487 26.7865 57.5404 28.0417C57.5872 28.2448 57.6003 28.4597 57.6003 28.6706C57.6042 31.013 57.5924 33.3555 57.612 35.6979C57.6159 36.1602 57.4753 36.3216 57.0039 36.3229C55.5833 36.3255 54.8333 36.888 54.3828 38.2643C54.2708 38.6068 54.1068 38.8438 53.7435 38.9102C53.7279 38.9128 53.7122 38.9206 53.6979 38.9284C52.9427 39.3438 52.2409 39.4571 51.3841 39.0183C50.543 38.5886 49.6602 38.8959 48.9518 39.5287C48.5638 39.875 48.2031 40.2526 47.8437 40.6276C47.0755 41.4297 46.8828 42.5183 47.3945 43.5117C47.6393 43.9883 47.7422 44.4063 47.4154 44.8633C47.388 44.9024 47.3672 44.9505 47.3568 44.9974C47.2083 45.6953 46.8021 46.0925 46.0964 46.2917C45.4245 46.4818 44.9453 46.9974 44.7461 47.668C44.6016 48.1537 44.3307 48.2292 43.8893 48.2279C38.375 48.2162 32.8594 48.2214 27.3451 48.2201C24.5638 48.2201 21.7812 48.2136 19 48.211L19 27.9011ZM49.7812 37.5534C49.7852 37.1029 49.5117 36.8959 49.181 36.7136C47.5312 35.7995 45.8854 34.8763 44.2383 33.9584C43.7695 33.6966 43.306 33.4258 42.8242 33.1901C42.4049 32.9857 42 33.1107 41.8034 33.4584C41.5924 33.8321 41.7148 34.2292 42.1315 34.5C42.2409 34.5703 42.3581 34.6263 42.4727 34.6901C43.9622 35.5235 45.4531 36.3568 46.9401 37.1953C47.0898 37.28 47.3385 37.3216 47.3307 37.5169C47.3229 37.7044 47.0794 37.7448 46.9271 37.8294C45.3398 38.7214 43.7448 39.6029 42.1641 40.5052C41.6992 40.7709 41.5898 41.1433 41.7943 41.5248C42.0078 41.9245 42.4362 42.0547 42.8841 41.806C45.0456 40.6081 47.2005 39.3972 49.3581 38.1914C49.6224 38.0443 49.7565 37.819 49.7812 37.5521V37.5534ZM34.0781 33.0977C33.888 33.0847 33.7187 33.181 33.5469 33.2774C31.474 34.4336 29.3971 35.586 27.3268 36.7474C26.5573 37.1784 26.556 37.8216 27.3268 38.2591C28.6419 39.0065 29.9648 39.7383 31.2852 40.4766C32.0937 40.9284 32.9023 41.3828 33.7148 41.8294C34.0143 41.9948 34.3099 41.974 34.5781 41.7513C34.8385 41.5352 34.8568 41.2487 34.7865 40.9492C34.7253 40.6862 34.5065 40.5625 34.2917 40.4414C32.7161 39.5599 31.1406 38.6784 29.5664 37.7956C29.0911 37.53 29.0872 37.4896 29.5586 37.2253C31.0326 36.3959 32.5117 35.5755 33.987 34.7487C34.1849 34.638 34.3906 34.5326 34.5664 34.3906C34.8594 34.1537 34.8789 33.8255 34.7578 33.5013C34.6497 33.211 34.4023 33.0925 34.0807 33.1003L34.0781 33.0977ZM40.3711 31.6771C40.3711 30.9571 39.8385 30.5951 39.3411 30.8334C39.0039 30.9948 38.9284 31.3099 38.8542 31.6315C38.2018 34.4818 37.5482 37.3321 36.8958 40.1836C36.6562 41.2292 36.4115 42.2735 36.1901 43.3216C36.0924 43.78 36.349 44.1641 36.7578 44.2539C37.1302 44.336 37.4948 44.086 37.6276 43.655C37.6654 43.5313 37.694 43.4037 37.7227 43.2774C38.4609 40.0638 39.2005 36.849 39.9375 33.6341C40.0964 32.9375 40.2474 32.2396 40.3711 31.6784V31.6771Z" fill="white"/>
<path d="M69 50.4597C68.7057 50.8724 68.2643 51.0443 67.8021 51.1524C67.1693 51.2995 66.7761 51.642 66.6198 52.2943C66.4948 52.8151 66.2578 53.3047 65.9935 53.7735C65.7643 54.1797 65.7748 54.556 65.9818 54.9753C66.7031 56.4297 66.694 56.4336 65.5287 57.5977C64.7735 58.3516 64.5 58.4271 63.5625 57.8907C62.9297 57.5287 62.388 57.4805 61.7526 57.8763C61.332 58.1381 60.832 58.2878 60.3529 58.4349C59.8841 58.5795 59.625 58.8711 59.4766 59.3256C58.9961 60.7904 58.9388 60.8243 57.4141 60.8217C56.2643 60.8204 56.0287 60.681 55.7136 59.5678C55.5248 58.8998 55.1732 58.5026 54.4909 58.3438C53.9857 58.2253 53.5117 57.9896 53.0573 57.7331C52.6524 57.5053 52.2774 57.5196 51.8581 57.7305C50.4336 58.4454 50.4271 58.4349 49.3125 57.3191C48.4935 56.4987 48.4336 56.2917 48.9935 55.2813C49.3268 54.6797 49.3841 54.1498 49.0065 53.5547C48.7266 53.1159 48.5664 52.612 48.4258 52.1094C48.2956 51.6433 48.0078 51.3737 47.5443 51.2253C46.043 50.7409 46.0365 50.7162 46.0378 49.1276C46.0391 48.0183 46.1745 47.7852 47.2279 47.4844C47.9232 47.2865 48.349 46.9258 48.5287 46.2045C48.6485 45.7227 48.8893 45.2644 49.1198 44.8164C49.3321 44.4037 49.3321 44.0352 49.125 43.6159C48.4089 42.1771 48.4193 42.1719 49.5599 41.0313C50.3607 40.2305 50.5742 40.1667 51.5534 40.7201C52.1888 41.0795 52.7487 41.1198 53.3724 40.7253C53.7982 40.4558 54.2878 40.3034 54.7735 40.1654C55.2201 40.0391 55.4753 39.75 55.6237 39.3112C56.1263 37.823 56.1341 37.8256 57.7123 37.8256C58.9271 37.8256 59.056 37.8881 59.3972 39.0612C59.586 39.7097 59.9245 40.0951 60.5899 40.2513C61.112 40.3724 61.599 40.6172 62.0664 40.8816C62.4597 41.1042 62.8294 41.0964 63.2227 40.8816C64.6823 40.0873 64.7279 40.2136 65.8373 41.3347C66.6211 42.1276 66.6849 42.3191 66.1432 43.2852C65.7891 43.9167 65.724 44.4753 66.1289 45.1042C66.4011 45.5261 66.5638 46.0157 66.6901 46.5039C66.819 47.0052 67.1432 47.2592 67.6185 47.3972C68.1432 47.5495 68.7136 47.6472 68.9987 48.2149V50.461L69 50.4597ZM62.4531 49.3125C62.4597 46.5482 60.3229 44.3972 57.5521 44.3803C54.8659 44.3633 52.6315 46.5782 52.6237 49.267C52.6159 51.9883 54.8216 54.2214 57.53 54.237C60.2552 54.2526 62.4479 52.0599 62.4544 49.3138L62.4531 49.3125Z" fill="white"/>
<path d="M19 49.6784C27.1185 49.6797 35.2383 49.6823 43.3568 49.6836C43.5521 49.6836 43.7487 49.7006 43.9427 49.681C44.375 49.6355 44.5482 49.8217 44.5846 50.2513C44.681 51.3868 45.3359 52.099 46.3945 52.4271C46.8268 52.5612 47.1029 52.7748 47.2122 53.2188C47.2617 53.4219 47.332 53.6381 47.4557 53.8008C47.8607 54.3386 47.543 54.78 47.3073 55.237C47.2409 55.3672 47.1198 55.4128 46.9844 55.4206C46.8385 55.4297 46.6914 55.4323 46.5456 55.4323C38.3945 55.4323 30.2422 55.4323 22.0911 55.4323C21.6185 55.4323 21.1458 55.4115 20.694 55.2578C19.8242 54.961 19.319 54.3125 19.0013 53.4857V49.6771L19 49.6784Z" fill="white"/>
<path d="M38.2877 61.6237C35.6367 61.6237 32.9857 61.6237 30.3333 61.6237C30.1875 61.6237 30.0403 61.6276 29.8945 61.6211C29.3685 61.5977 29 61.2631 28.9831 60.7943C28.9648 60.3125 29.3411 59.9258 29.8919 59.9141C30.8346 59.8959 31.7799 59.8829 32.7213 59.9167C33.1706 59.9323 33.3971 59.7943 33.5286 59.3555C33.7331 58.6706 34.0143 58.0105 34.2396 57.3321C34.3424 57.0235 34.513 56.892 34.8424 56.892C37.1354 56.8998 39.4297 56.8998 41.7226 56.892C42.0286 56.892 42.2005 57.0105 42.2982 57.3008C42.5495 58.0391 42.8294 58.7683 43.0768 59.5092C43.1745 59.8021 43.3359 59.9154 43.6471 59.9102C44.6393 59.8959 45.6315 59.8959 46.6237 59.9102C47.2526 59.9206 47.6237 60.3438 47.539 60.9076C47.4713 61.3555 47.138 61.6159 46.582 61.6185C45.3138 61.6263 44.0443 61.6211 42.776 61.6211C41.2799 61.6211 39.7825 61.6211 38.2864 61.6211L38.2877 61.6237Z" fill="white"/>
<path d="M57.5521 52.7278C55.6758 52.7252 54.1302 51.1809 54.1302 49.3099C54.1302 47.4322 55.6706 45.8697 57.5299 45.8606C59.3997 45.8515 61.0169 47.4648 60.9935 49.3151C60.97 51.1862 59.4114 52.7317 57.5508 52.7291L57.5521 52.7278Z" fill="white"/>
</svg>
